<?xml version="1.0" encoding="UTF-8"?>
<!DOCTYPE svg PUBLIC "-//W3C//DTD SVG 1.1//EN" "http://www.w3.org/Graphics/SVG/1.1/DTD/svg11.dtd">
<!-- Creator: CorelDRAW 2020 (64 Bit) -->
<svg xmlns="http://www.w3.org/2000/svg" xml:space="preserve" width="318.99mm" height="81.284mm" version="1.1" style="shape-rendering:geometricPrecision; text-rendering:geometricPrecision; image-rendering:optimizeQuality; fill-rule:evenodd; clip-rule:evenodd"
viewBox="0 0 31899 8128.4"
 xmlns:xlink="http://www.w3.org/1999/xlink"
 xmlns:xodm="http://www.corel.com/coreldraw/odm/2003">
 <defs>
  <style type="text/css">
   <![CDATA[
    .fil0 {fill:#293272;fill-rule:nonzero}
    .fil2 {fill:#293273;fill-rule:nonzero}
    .fil1 {fill:white;fill-rule:nonzero}
   ]]>
  </style>
 </defs>
 <g id="Camada_x0020_1">
  <metadata id="CorelCorpID_0Corel-Layer"/>
  <path class="fil0" d="M6156.44 1697.27c0,54.68 -14.04,100.43 -42.14,137.26 -28.1,36.83 -65.69,63.98 -112.77,81.45 -47.09,17.47 -99.49,26.2 -157.2,26.2 -55.44,0 -105.75,-8.73 -150.93,-26.2 -45.19,-17.47 -91.7,-45.18 -139.54,-83.16 -4.56,-4.55 -6.84,-9.11 -6.84,-13.66 0,-3.8 1.14,-7.22 3.42,-10.26l56.95 -79.73c3.04,-4.56 7.22,-6.84 12.53,-6.84 3.8,0 7.22,1.14 10.26,3.42 38.73,28.1 75.75,49.36 111.06,63.79 35.31,14.43 71.57,22.02 108.78,22.78 45.57,0 84.49,-9.68 116.76,-29.05 32.28,-19.36 48.42,-47.27 48.42,-83.72 0,-25.82 -7.98,-46.51 -23.93,-62.08 -15.94,-15.57 -36.45,-27.53 -61.51,-35.88 -25.06,-8.36 -58.09,-16.71 -99.1,-25.07 -78.98,-16.7 -144.86,-43.47 -197.64,-80.3 -52.78,-36.83 -79.16,-93.22 -79.16,-169.16 0,-75.18 28.66,-131.76 86,-169.73 57.33,-37.97 130.05,-56.95 218.14,-56.95 48.6,0 93.78,7.02 135.55,21.07 41.77,14.05 85.81,37.02 132.14,68.92 5.31,3.03 7.97,7.21 7.97,12.53 0,3.03 -1.14,6.45 -3.41,10.25l-54.68 78.6c-3.8,4.55 -7.98,6.83 -12.53,6.83 -3.04,0 -6.84,-1.14 -11.39,-3.42 -64.55,-41.76 -132.52,-63.79 -203.9,-66.06 -48.61,0 -86.58,8.92 -113.92,26.77 -27.33,17.84 -41,42.33 -41,73.47 0,22.78 7.02,41.2 21.07,55.24 14.05,14.05 32.65,25.26 55.82,33.61 23.16,8.35 55.24,17.09 96.25,26.2 57.72,12.91 106.7,27.53 146.95,43.85 40.25,16.33 74.23,41.39 101.95,75.19 27.72,33.79 41.57,78.4 41.57,133.84z"/>
  <path id="1" class="fil0" d="M6796.62 1803.21c11.39,0 17.09,5.31 17.09,15.95l0 92.26c0,11.39 -5.7,17.09 -17.09,17.09l-487.54 0c-10.63,0 -15.94,-5.7 -15.94,-17.09l0 -780.29c0,-11.39 5.31,-17.08 15.94,-17.08l471.6 0c11.39,0 17.08,5.69 17.08,17.08l0 92.27c0,10.63 -5.69,15.95 -17.08,15.95l-349.71 0 0 213.01 320.09 0c11.39,0 17.09,5.7 17.09,17.09l0 91.13c0,11.39 -5.7,17.08 -17.09,17.08l-320.09 0 0 225.55 365.65 0z"/>
  <path id="2" class="fil0" d="M6976.6 1928.51c-10.63,0 -15.94,-5.7 -15.94,-17.09l0 -780.29c0,-11.39 5.31,-17.08 15.94,-17.08l282.5 0c96.45,0 171.82,25.63 226.12,76.89 54.29,51.26 81.44,125.87 81.44,223.83l0 216.43c0,96.45 -27.15,170.11 -81.44,220.99 -54.3,50.88 -129.67,76.32 -226.12,76.32l-282.5 0zm282.5 -128.72c110.12,0 165.17,-55.82 165.17,-167.45l0 -218.71c0,-115.43 -55.05,-173.14 -165.17,-173.14l-160.61 0 0 559.3 160.61 0z"/>
  <path id="3" class="fil0" d="M8230.76 1803.21c11.39,0 17.09,5.31 17.09,15.95l0 92.26c0,11.39 -5.7,17.09 -17.09,17.09l-487.54 0c-10.63,0 -15.94,-5.7 -15.94,-17.09l0 -780.29c0,-11.39 5.31,-17.08 15.94,-17.08l471.6 0c11.39,0 17.08,5.69 17.08,17.08l0 92.27c0,10.63 -5.69,15.95 -17.08,15.95l-349.71 0 0 213.01 320.09 0c11.39,0 17.09,5.7 17.09,17.09l0 91.13c0,11.39 -5.7,17.08 -17.09,17.08l-320.09 0 0 225.55 365.65 0z"/>
  <path id="4" class="fil0" d="M8937.02 1859.02c-34.94,27.34 -75.18,48.04 -120.75,62.09 -45.56,14.04 -92.65,21.07 -141.25,21.07 -58.47,0 -111.44,-10.63 -158.9,-31.9 -47.47,-21.26 -85.25,-53.53 -113.35,-96.82 -28.09,-43.29 -42.14,-97.2 -42.14,-161.75l0 -259.72c0,-64.55 14.05,-118.66 42.14,-162.32 28.1,-43.67 65.69,-76.13 112.78,-97.4 47.08,-21.26 99.48,-31.89 157.19,-31.89 43.29,0 86.2,6.64 128.72,19.93 42.53,13.29 80.88,32.09 115.05,56.39 4.56,3.04 6.84,7.21 6.84,12.53 0,3.04 -1.14,6.45 -3.42,10.25l-53.54 77.46c-3.04,5.31 -7.21,7.97 -12.53,7.97 -3.04,0 -6.83,-1.14 -11.39,-3.41 -25.06,-17.47 -52.21,-30.38 -81.45,-38.73 -29.23,-8.36 -58.66,-12.53 -88.28,-12.53 -54.67,0 -97.39,14.42 -128.15,43.28 -30.75,28.86 -46.13,68.73 -46.13,119.61l0 255.16c0,51.64 15.38,91.89 46.13,120.74 30.76,28.86 73.86,43.29 129.29,43.29 33.42,0 66.64,-5.13 99.67,-15.38 33.04,-10.25 62.84,-24.87 89.42,-43.85 4.56,-3.04 7.98,-4.56 10.26,-4.56 4.55,0 8.73,3.04 12.53,9.11l53.53 77.46c3.04,6.08 4.56,9.88 4.56,11.39 0,4.56 -2.28,8.74 -6.83,12.53z"/>
  <path class="fil0" d="M4432.87 3064.28c0,54.68 -14.04,100.43 -42.14,137.26 -28.1,36.83 -65.69,63.98 -112.77,81.45 -47.09,17.47 -99.49,26.2 -157.2,26.2 -55.44,0 -105.75,-8.73 -150.93,-26.2 -45.19,-17.47 -91.7,-45.18 -139.54,-83.16 -4.56,-4.55 -6.84,-9.11 -6.84,-13.66 0,-3.8 1.14,-7.22 3.42,-10.26l56.95 -79.73c3.04,-4.56 7.22,-6.84 12.53,-6.84 3.8,0 7.22,1.14 10.26,3.42 38.73,28.1 75.75,49.36 111.06,63.79 35.31,14.43 71.57,22.02 108.78,22.78 45.57,0 84.49,-9.68 116.76,-29.05 32.28,-19.36 48.42,-47.27 48.42,-83.72 0,-25.82 -7.98,-46.51 -23.93,-62.08 -15.94,-15.57 -36.45,-27.53 -61.51,-35.88 -25.06,-8.36 -58.09,-16.71 -99.1,-25.07 -78.98,-16.7 -144.86,-43.47 -197.64,-80.3 -52.78,-36.83 -79.16,-93.22 -79.16,-169.16 0,-75.18 28.66,-131.76 86,-169.73 57.33,-37.97 130.05,-56.95 218.14,-56.95 48.6,0 93.78,7.02 135.55,21.07 41.77,14.05 85.81,37.02 132.14,68.92 5.31,3.03 7.97,7.21 7.97,12.53 0,3.03 -1.14,6.45 -3.41,10.25l-54.68 78.6c-3.8,4.55 -7.98,6.83 -12.53,6.83 -3.04,0 -6.84,-1.14 -11.39,-3.42 -64.55,-41.76 -132.52,-63.79 -203.9,-66.06 -48.61,0 -86.58,8.92 -113.92,26.77 -27.33,17.84 -41,42.33 -41,73.47 0,22.78 7.02,41.2 21.07,55.24 14.05,14.05 32.65,25.26 55.82,33.61 23.16,8.35 55.24,17.09 96.25,26.2 57.72,12.91 106.7,27.53 146.95,43.85 40.25,16.33 74.23,41.39 101.95,75.19 27.72,33.79 41.57,78.4 41.57,133.84z"/>
  <path id="1" class="fil0" d="M5026.35 3040.36c0,10.63 -5.7,15.95 -17.09,15.95l-346.29 0 0 31.89c0,34.18 10.83,60.18 32.47,78.03 21.64,17.85 51.07,26.77 88.28,26.77 32.65,0 61.51,-4.56 86.57,-13.67 25.06,-9.11 49.74,-22.02 74.04,-38.73 3.8,-2.28 7.22,-3.42 10.26,-3.42 5.31,0 9.49,2.28 12.53,6.84l46.7 62.65c3.04,3.04 4.56,6.45 4.56,10.25 0,6.08 -2.66,10.63 -7.98,13.67 -66.07,52.4 -143.15,78.6 -231.24,78.6 -44.8,0 -86,-8.16 -123.59,-24.49 -37.59,-16.33 -67.97,-41.2 -91.13,-74.61 -23.16,-33.42 -34.74,-74.43 -34.74,-123.03l0 -161.75c0,-53.16 11.77,-97.2 35.31,-132.14 23.54,-34.93 54.3,-60.56 92.27,-76.89 37.97,-16.32 78.98,-24.49 123.02,-24.49 44.05,0 84.68,8.17 121.89,24.49 37.21,16.33 67.2,41.96 89.99,76.89 22.78,34.94 34.17,78.98 34.17,132.14l0 115.05zm-128.72 -116.19c0,-39.49 -11.01,-68.73 -33.03,-87.71 -22.03,-18.99 -50.12,-28.48 -84.3,-28.48 -35.69,0 -64.17,9.3 -85.43,27.91 -21.26,18.6 -31.9,48.03 -31.9,88.28l0 29.62 234.66 0 0 -29.62z"/>
  <path id="2" class="fil0" d="M5582.23 3245.4c-59.99,42.53 -127.2,63.79 -201.62,63.79 -78.98,0 -141.25,-20.88 -186.81,-62.65 -45.57,-41.77 -68.35,-97.59 -68.35,-167.45l0 -158.34c0,-69.86 22.78,-125.49 68.35,-166.88 45.56,-41.38 107.45,-62.08 185.67,-62.08 66.83,0 129.1,18.23 186.81,54.68 5.32,3.04 7.98,7.59 7.98,13.67 0,3.04 -1.14,6.45 -3.42,10.25l-44.42 68.35c-3.8,5.31 -8.36,7.97 -13.67,7.97 -3.8,0 -7.22,-1.14 -10.26,-3.42 -37.97,-22.02 -77.83,-33.03 -119.6,-33.03 -40.25,0 -71.2,9.49 -92.84,28.48 -21.64,18.98 -32.46,46.32 -32.46,82.01l0 159.48c0,34.93 10.82,62.08 32.46,81.44 21.64,19.37 52.21,29.05 91.7,29.05 46.32,0 90.37,-13.67 132.14,-41.01 4.55,-2.27 8.35,-3.41 11.39,-3.41 5.31,0 9.49,2.65 12.53,7.97l47.84 68.35c2.28,4.55 3.42,8.35 3.42,11.39 0,3.8 -2.28,7.59 -6.84,11.39z"/>
  <path id="3" class="fil0" d="M5698.42 3295.52c-11.39,0 -17.09,-5.7 -17.09,-17.09l0 -523.99c0,-9.87 4.18,-16.32 12.54,-19.36 28.85,-14.43 60.56,-25.25 95.11,-32.47 34.55,-7.21 69.3,-10.82 104.23,-10.82 38.73,0 77.46,3.04 116.19,9.11 9.87,0.76 14.81,6.46 14.81,17.09l0 82.02c0,5.31 -1.71,9.11 -5.13,11.39 -3.42,2.28 -7.78,3.04 -13.1,2.28 -18.98,-3.04 -49.74,-4.56 -92.27,-4.56 -41.76,0 -75.18,5.32 -100.24,15.95l0 453.36c0,11.39 -5.69,17.09 -17.09,17.09l-97.96 0z"/>
  <path id="4" class="fil0" d="M6578.95 3040.36c0,10.63 -5.7,15.95 -17.09,15.95l-346.29 0 0 31.89c0,34.18 10.83,60.18 32.47,78.03 21.64,17.85 51.07,26.77 88.28,26.77 32.65,0 61.51,-4.56 86.57,-13.67 25.06,-9.11 49.74,-22.02 74.04,-38.73 3.8,-2.28 7.22,-3.42 10.26,-3.42 5.31,0 9.49,2.28 12.53,6.84l46.7 62.65c3.04,3.04 4.56,6.45 4.56,10.25 0,6.08 -2.66,10.63 -7.98,13.67 -66.07,52.4 -143.15,78.6 -231.24,78.6 -44.8,0 -86,-8.16 -123.59,-24.49 -37.59,-16.33 -67.97,-41.2 -91.13,-74.61 -23.16,-33.42 -34.74,-74.43 -34.74,-123.03l0 -161.75c0,-53.16 11.77,-97.2 35.31,-132.14 23.54,-34.93 54.3,-60.56 92.27,-76.89 37.97,-16.32 78.98,-24.49 123.02,-24.49 44.05,0 84.68,8.17 121.89,24.49 37.21,16.33 67.2,41.96 89.99,76.89 22.78,34.94 34.17,78.98 34.17,132.14l0 115.05zm-128.72 -116.19c0,-39.49 -11.01,-68.73 -33.03,-87.71 -22.03,-18.99 -50.12,-28.48 -84.3,-28.48 -35.69,0 -64.17,9.3 -85.43,27.91 -21.26,18.6 -31.9,48.03 -31.9,88.28l0 29.62 234.66 0 0 -29.62z"/>
  <path id="5" class="fil0" d="M6826.13 3089.34c0,31.14 7.79,55.44 23.36,72.9 15.56,17.47 37.78,26.2 66.63,26.2l46.71 -2.27c12.15,0 18.22,5.31 18.22,15.94l0 86.58c0,11.39 -5.31,17.46 -15.95,18.22 -25.82,1.52 -45.94,2.28 -60.37,2.28 -63.03,0 -113.91,-17.28 -152.64,-51.83 -38.73,-34.55 -58.09,-87.52 -58.09,-158.91l0 -520.57c0,-10.63 5.69,-15.95 17.08,-15.95l86.58 0c4.55,0 8.35,1.33 11.39,3.99 3.03,2.66 4.93,6.27 5.69,10.82l10.25 136.69 121.89 0c11.39,0 17.09,5.32 17.09,15.95l0 83.16c0,10.63 -5.7,15.94 -17.09,15.94l-120.75 0 0 260.86z"/>
  <path id="6" class="fil0" d="M7072.18 2752.16c58.47,-40.24 132.89,-60.37 223.26,-60.37 73.67,0 131.57,19.18 173.72,57.53 42.14,38.35 63.22,96.25 63.22,173.71l0 332.62c0,9.11 -4.18,15.57 -12.53,19.37 -31.9,9.87 -68.16,18.03 -108.79,24.49 -40.63,6.45 -80.68,9.68 -120.17,9.68 -73.67,0 -134.42,-15.19 -182.26,-45.57 -47.84,-30.37 -71.76,-78.59 -71.76,-144.66 0,-60 22.59,-105.37 67.77,-136.13 45.19,-30.75 105.75,-46.13 181.69,-46.13 30.38,0 68.35,3.04 113.91,9.11l0 -21.64c0,-41.01 -8.54,-70.43 -25.63,-88.28 -17.09,-17.85 -46.51,-26.77 -88.28,-26.77 -27.34,0 -53.73,3.23 -79.17,9.68 -25.44,6.46 -47.65,15.38 -66.64,26.77 -3.79,2.28 -7.21,3.42 -10.25,3.42 -5.31,0 -9.49,-2.66 -12.53,-7.97l-45.56 -69.49c-5.32,-8.35 -5.32,-14.81 0,-19.37zm97.96 365.66c0,25.82 11.01,44.99 33.04,57.52 22.02,12.53 51.26,18.8 87.71,18.8 34.93,0 71.38,-4.56 109.35,-13.67l0 -128.72c-41.01,-6.07 -77.84,-9.11 -110.49,-9.11 -79.74,0 -119.61,25.06 -119.61,75.18z"/>
  <path id="7" class="fil0" d="M7685.02 3295.52c-11.39,0 -17.09,-5.7 -17.09,-17.09l0 -523.99c0,-9.87 4.18,-16.32 12.54,-19.36 28.85,-14.43 60.56,-25.25 95.11,-32.47 34.55,-7.21 69.3,-10.82 104.23,-10.82 38.73,0 77.46,3.04 116.19,9.11 9.87,0.76 14.81,6.46 14.81,17.09l0 82.02c0,5.31 -1.71,9.11 -5.13,11.39 -3.42,2.28 -7.78,3.04 -13.1,2.28 -18.98,-3.04 -49.74,-4.56 -92.27,-4.56 -41.76,0 -75.18,5.32 -100.24,15.95l0 453.36c0,11.39 -5.69,17.09 -17.09,17.09l-97.96 0z"/>
  <path id="8" class="fil0" d="M8242.04 2550.54c0,21.27 -7.02,39.11 -21.07,53.54 -14.05,14.43 -31.71,21.64 -52.97,21.64 -21.26,0 -39.11,-7.21 -53.54,-21.64 -14.43,-14.43 -21.64,-32.27 -21.64,-53.54 0,-21.26 7.21,-38.92 21.64,-52.97 14.43,-14.05 32.28,-21.07 53.54,-21.07 22.02,0 39.87,6.83 53.54,20.5 13.67,13.67 20.5,31.52 20.5,53.54zm-124.16 744.98c-11.39,0 -17.09,-5.7 -17.09,-17.09l0 -557.02c0,-10.63 5.7,-15.95 17.09,-15.95l99.1 0c10.63,0 15.95,5.32 15.95,15.95l0 557.02c0,11.39 -5.32,17.09 -15.95,17.09l-99.1 0z"/>
  <path id="9" class="fil0" d="M8371.9 2752.16c58.47,-40.24 132.89,-60.37 223.26,-60.37 73.67,0 131.57,19.18 173.72,57.53 42.14,38.35 63.22,96.25 63.22,173.71l0 332.62c0,9.11 -4.18,15.57 -12.53,19.37 -31.9,9.87 -68.16,18.03 -108.79,24.49 -40.63,6.45 -80.68,9.68 -120.17,9.68 -73.67,0 -134.42,-15.19 -182.26,-45.57 -47.84,-30.37 -71.76,-78.59 -71.76,-144.66 0,-60 22.59,-105.37 67.77,-136.13 45.19,-30.75 105.75,-46.13 181.69,-46.13 30.38,0 68.35,3.04 113.91,9.11l0 -21.64c0,-41.01 -8.54,-70.43 -25.63,-88.28 -17.09,-17.85 -46.51,-26.77 -88.28,-26.77 -27.34,0 -53.73,3.23 -79.17,9.68 -25.44,6.46 -47.65,15.38 -66.64,26.77 -3.79,2.28 -7.21,3.42 -10.25,3.42 -5.31,0 -9.49,-2.66 -12.53,-7.97l-45.56 -69.49c-5.32,-8.35 -5.32,-14.81 0,-19.37zm97.96 365.66c0,25.82 11.01,44.99 33.04,57.52 22.02,12.53 51.26,18.8 87.71,18.8 34.93,0 71.38,-4.56 109.35,-13.67l0 -128.72c-41.01,-6.07 -77.84,-9.11 -110.49,-9.11 -79.74,0 -119.61,25.06 -119.61,75.18z"/>
  <path class="fil0" d="M2974.75 3865.14c0,-11.39 5.7,-17.08 17.09,-17.08l97.96 0c11.39,0 17.09,5.69 17.09,17.08l0 750.68c0,9.87 -4.18,16.32 -12.53,19.36 -34.18,12.91 -71.96,22.97 -113.35,30.19 -41.38,7.21 -80.3,10.82 -116.75,10.82 -78.98,0 -142.2,-20.88 -189.67,-62.65 -47.46,-41.77 -71.19,-104.42 -71.19,-187.95l0 -125.31c0,-48.6 10.63,-91.13 31.9,-127.58 21.26,-36.45 50.69,-64.55 88.28,-84.29 37.59,-19.75 80.3,-29.62 128.15,-29.62 43.28,0 84.29,8.36 123.02,25.06l0 -218.71zm-238.07 561.58c0,47.09 11.2,81.07 33.6,101.95 22.4,20.89 54.87,31.33 97.39,31.33 43.29,0 78.98,-5.32 107.08,-15.95l0 -338.31c-29.62,-19.75 -66.07,-29.62 -109.35,-29.62 -85.82,0 -128.72,41.39 -128.72,124.16l0 126.44z"/>
  <path id="1" class="fil0" d="M3727.7 4407.36c0,10.63 -5.7,15.95 -17.09,15.95l-346.29 0 0 31.89c0,34.18 10.83,60.18 32.47,78.03 21.64,17.85 51.07,26.77 88.28,26.77 32.65,0 61.51,-4.56 86.57,-13.67 25.06,-9.11 49.74,-22.02 74.04,-38.73 3.8,-2.28 7.22,-3.42 10.26,-3.42 5.31,0 9.49,2.28 12.53,6.84l46.7 62.65c3.04,3.04 4.56,6.45 4.56,10.25 0,6.08 -2.66,10.63 -7.98,13.67 -66.07,52.4 -143.15,78.6 -231.24,78.6 -44.8,0 -86,-8.16 -123.59,-24.49 -37.59,-16.33 -67.97,-41.2 -91.13,-74.61 -23.16,-33.42 -34.74,-74.43 -34.74,-123.03l0 -161.75c0,-53.16 11.77,-97.2 35.31,-132.14 23.54,-34.93 54.3,-60.56 92.27,-76.89 37.97,-16.32 78.98,-24.49 123.02,-24.49 44.05,0 84.68,8.17 121.89,24.49 37.21,16.33 67.2,41.96 89.99,76.89 22.78,34.94 34.17,78.98 34.17,132.14l0 115.05zm-128.72 -116.19c0,-39.49 -11.01,-68.73 -33.03,-87.71 -22.03,-18.99 -50.12,-28.48 -84.3,-28.48 -35.69,0 -64.17,9.3 -85.43,27.91 -21.26,18.6 -31.9,48.03 -31.9,88.28l0 29.62 234.66 0 0 -29.62z"/>
  <path id="2" class="fil0" d="M4617.34 4537.22c11.39,0 17.09,5.31 17.09,15.95l0 92.26c0,11.39 -5.7,17.09 -17.09,17.09l-487.54 0c-10.63,0 -15.94,-5.7 -15.94,-17.09l0 -780.29c0,-11.39 5.31,-17.08 15.94,-17.08l471.6 0c11.39,0 17.08,5.69 17.08,17.08l0 92.27c0,10.63 -5.69,15.95 -17.08,15.95l-349.71 0 0 213.01 320.09 0c11.39,0 17.09,5.7 17.09,17.09l0 91.13c0,11.39 -5.7,17.08 -17.09,17.08l-320.09 0 0 225.55 365.65 0z"/>
  <path id="3" class="fil0" d="M5203.99 4487.1c0,61.51 -22.41,108.4 -67.21,140.68 -44.81,32.27 -102.9,48.41 -174.28,48.41 -86.58,0 -163.66,-24.68 -231.24,-74.04 -5.32,-3.04 -7.98,-6.84 -7.98,-11.39 0,-4.56 1.14,-8.36 3.42,-11.4l43.29 -74.04c3.79,-6.07 7.59,-9.11 11.39,-9.11 1.52,0 5.31,1.52 11.39,4.56 25.82,18.98 53.54,33.41 83.15,43.28 29.62,9.87 59.24,14.81 88.85,14.81 31.14,0 56.58,-5.69 76.32,-17.09 19.75,-11.39 29.62,-27.71 29.62,-48.98 0,-20.5 -9.3,-35.31 -27.91,-44.42 -18.6,-9.12 -44.61,-16.71 -78.03,-22.78 -63.79,-12.16 -118.08,-31.71 -162.89,-58.67 -44.8,-26.96 -67.21,-70.43 -67.21,-130.43 0,-59.23 23.36,-103.85 70.06,-133.84 46.7,-30 103.85,-45 171.43,-45 67.59,0 133.66,17.47 198.21,52.4 6.08,3.8 9.11,7.98 9.11,12.53 0,3.04 -1.14,6.46 -3.41,10.25l-43.29 72.91c-3.04,5.31 -7.59,7.97 -13.67,7.97 -1.52,0 -4.56,-0.76 -9.11,-2.28 -46.33,-25.06 -94.55,-37.59 -144.67,-37.59 -32.65,0 -58.09,5.7 -76.32,17.09 -18.23,11.39 -27.34,26.58 -27.34,45.56 0,21.27 9.68,36.45 29.05,45.57 19.36,9.11 51.83,18.22 97.39,27.34 40.25,7.59 75.18,16.89 104.8,27.9 29.62,11.02 54.87,28.67 75.75,52.97 20.89,24.3 31.33,56.58 31.33,96.83z"/>
  <path id="4" class="fil0" d="M5439.78 4456.34c0,31.14 7.79,55.44 23.36,72.9 15.56,17.47 37.78,26.2 66.63,26.2l46.71 -2.27c12.15,0 18.22,5.31 18.22,15.94l0 86.58c0,11.39 -5.31,17.46 -15.95,18.22 -25.82,1.52 -45.94,2.28 -60.37,2.28 -63.03,0 -113.91,-17.28 -152.64,-51.83 -38.73,-34.55 -58.09,-87.52 -58.09,-158.91l0 -520.57c0,-10.63 5.69,-15.95 17.08,-15.95l86.58 0c4.55,0 8.35,1.33 11.39,3.99 3.03,2.66 4.93,6.27 5.69,10.82l10.25 136.69 121.89 0c11.39,0 17.09,5.32 17.09,15.95l0 83.16c0,10.63 -5.7,15.94 -17.09,15.94l-120.75 0 0 260.86z"/>
  <path id="5" class="fil0" d="M5685.83 4119.16c58.47,-40.24 132.89,-60.37 223.26,-60.37 73.67,0 131.57,19.18 173.72,57.53 42.14,38.35 63.22,96.25 63.22,173.71l0 332.62c0,9.11 -4.18,15.57 -12.53,19.37 -31.9,9.87 -68.16,18.03 -108.79,24.49 -40.63,6.45 -80.68,9.68 -120.17,9.68 -73.67,0 -134.42,-15.19 -182.26,-45.57 -47.84,-30.37 -71.76,-78.59 -71.76,-144.66 0,-60 22.59,-105.37 67.77,-136.13 45.19,-30.75 105.75,-46.13 181.69,-46.13 30.38,0 68.35,3.04 113.91,9.11l0 -21.64c0,-41.01 -8.54,-70.43 -25.63,-88.28 -17.09,-17.85 -46.51,-26.77 -88.28,-26.77 -27.34,0 -53.73,3.23 -79.17,9.68 -25.44,6.46 -47.65,15.38 -66.64,26.77 -3.79,2.28 -7.21,3.42 -10.25,3.42 -5.31,0 -9.49,-2.66 -12.53,-7.97l-45.56 -69.49c-5.32,-8.35 -5.32,-14.81 0,-19.37zm97.96 365.66c0,25.82 11.01,44.99 33.04,57.52 22.02,12.53 51.26,18.8 87.71,18.8 34.93,0 71.38,-4.56 109.35,-13.67l0 -128.72c-41.01,-6.07 -77.84,-9.11 -110.49,-9.11 -79.74,0 -119.61,25.06 -119.61,75.18z"/>
  <path id="6" class="fil0" d="M6633.57 3865.14c0,-11.39 5.7,-17.08 17.09,-17.08l97.96 0c11.39,0 17.09,5.69 17.09,17.08l0 750.68c0,9.87 -4.18,16.32 -12.53,19.36 -34.18,12.91 -71.96,22.97 -113.35,30.19 -41.38,7.21 -80.3,10.82 -116.75,10.82 -78.98,0 -142.2,-20.88 -189.67,-62.65 -47.46,-41.77 -71.19,-104.42 -71.19,-187.95l0 -125.31c0,-48.6 10.63,-91.13 31.9,-127.58 21.26,-36.45 50.69,-64.55 88.28,-84.29 37.59,-19.75 80.3,-29.62 128.15,-29.62 43.28,0 84.29,8.36 123.02,25.06l0 -218.71zm-238.07 561.58c0,47.09 11.2,81.07 33.6,101.95 22.4,20.89 54.87,31.33 97.39,31.33 43.29,0 78.98,-5.32 107.08,-15.95l0 -338.31c-29.62,-19.75 -66.07,-29.62 -109.35,-29.62 -85.82,0 -128.72,41.39 -128.72,124.16l0 126.44z"/>
  <path id="7" class="fil0" d="M7408.16 4446.09c0,70.62 -23.54,126.63 -70.62,168.02 -47.08,41.39 -110.12,62.08 -189.09,62.08 -78.98,0 -142.01,-20.69 -189.1,-62.08 -47.08,-41.39 -70.62,-97.4 -70.62,-168.02l0 -152.64c0,-71.39 23.54,-128.34 70.62,-170.87 47.09,-42.52 110.12,-63.79 189.1,-63.79 78.97,0 142.01,21.27 189.09,63.79 47.08,42.53 70.62,99.48 70.62,170.87l0 152.64zm-386.16 0c0,36.45 10.83,64.17 32.47,83.15 21.64,18.99 52.97,28.48 93.98,28.48 41,0 72.33,-9.49 93.97,-28.48 21.65,-18.98 32.47,-46.7 32.47,-83.15l0 -152.64c0,-37.21 -11.01,-65.88 -33.04,-86 -22.02,-20.13 -53.16,-30.19 -93.4,-30.19 -41.01,0 -72.34,9.87 -93.98,29.62 -21.64,19.74 -32.47,48.6 -32.47,86.57l0 152.64z"/>
  <path id="8" class="fil0" d="M8129.22 3865.14c0,-11.39 5.7,-17.08 17.09,-17.08l97.96 0c11.39,0 17.09,5.69 17.09,17.08l0 750.68c0,9.87 -4.18,16.32 -12.53,19.36 -34.18,12.91 -71.96,22.97 -113.35,30.19 -41.38,7.21 -80.3,10.82 -116.75,10.82 -78.98,0 -142.2,-20.88 -189.67,-62.65 -47.46,-41.77 -71.19,-104.42 -71.19,-187.95l0 -125.31c0,-48.6 10.63,-91.13 31.9,-127.58 21.26,-36.45 50.69,-64.55 88.28,-84.29 37.59,-19.75 80.3,-29.62 128.15,-29.62 43.28,0 84.29,8.36 123.02,25.06l0 -218.71zm-238.07 561.58c0,47.09 11.2,81.07 33.6,101.95 22.4,20.89 54.87,31.33 97.39,31.33 43.29,0 78.98,-5.32 107.08,-15.95l0 -338.31c-29.62,-19.75 -66.07,-29.62 -109.35,-29.62 -85.82,0 -128.72,41.39 -128.72,124.16l0 126.44z"/>
  <path id="9" class="fil0" d="M8882.17 4407.36c0,10.63 -5.7,15.95 -17.09,15.95l-346.29 0 0 31.89c0,34.18 10.83,60.18 32.47,78.03 21.64,17.85 51.07,26.77 88.28,26.77 32.65,0 61.51,-4.56 86.57,-13.67 25.06,-9.11 49.74,-22.02 74.04,-38.73 3.8,-2.28 7.22,-3.42 10.26,-3.42 5.31,0 9.49,2.28 12.53,6.84l46.7 62.65c3.04,3.04 4.56,6.45 4.56,10.25 0,6.08 -2.66,10.63 -7.98,13.67 -66.07,52.4 -143.15,78.6 -231.24,78.6 -44.8,0 -86,-8.16 -123.59,-24.49 -37.59,-16.33 -67.97,-41.2 -91.13,-74.61 -23.16,-33.42 -34.74,-74.43 -34.74,-123.03l0 -161.75c0,-53.16 11.77,-97.2 35.31,-132.14 23.54,-34.93 54.3,-60.56 92.27,-76.89 37.97,-16.32 78.98,-24.49 123.02,-24.49 44.05,0 84.68,8.17 121.89,24.49 37.21,16.33 67.2,41.96 89.99,76.89 22.78,34.94 34.17,78.98 34.17,132.14l0 115.05zm-128.72 -116.19c0,-39.49 -11.01,-68.73 -33.03,-87.71 -22.03,-18.99 -50.12,-28.48 -84.3,-28.48 -35.69,0 -64.17,9.3 -85.43,27.91 -21.26,18.6 -31.9,48.03 -31.9,88.28l0 29.62 234.66 0 0 -29.62z"/>
  <path class="fil0" d="M359.22 6029.53c-10.63,0 -15.94,-5.7 -15.94,-17.09l0 -780.29c0,-11.39 5.31,-17.08 15.94,-17.08l282.5 0c96.45,0 171.82,25.63 226.12,76.89 54.29,51.26 81.44,125.87 81.44,223.83l0 216.43c0,96.45 -27.15,170.11 -81.44,220.99 -54.3,50.88 -129.67,76.32 -226.12,76.32l-282.5 0zm282.5 -128.72c110.12,0 165.17,-55.82 165.17,-167.45l0 -218.71c0,-115.43 -55.05,-173.14 -165.17,-173.14l-160.61 0 0 559.3 160.61 0z"/>
  <path id="1" class="fil0" d="M1566.68 5774.37c0,10.63 -5.7,15.95 -17.09,15.95l-346.29 0 0 31.89c0,34.18 10.83,60.18 32.47,78.03 21.64,17.85 51.07,26.77 88.28,26.77 32.65,0 61.51,-4.56 86.57,-13.67 25.06,-9.11 49.74,-22.02 74.04,-38.73 3.8,-2.28 7.22,-3.42 10.26,-3.42 5.31,0 9.49,2.28 12.53,6.84l46.7 62.65c3.04,3.04 4.56,6.45 4.56,10.25 0,6.08 -2.66,10.63 -7.98,13.67 -66.07,52.4 -143.15,78.6 -231.24,78.6 -44.8,0 -86,-8.16 -123.59,-24.49 -37.59,-16.33 -67.97,-41.2 -91.13,-74.61 -23.16,-33.42 -34.74,-74.43 -34.74,-123.03l0 -161.75c0,-53.16 11.77,-97.2 35.31,-132.14 23.54,-34.93 54.3,-60.56 92.27,-76.89 37.97,-16.32 78.98,-24.49 123.02,-24.49 44.05,0 84.68,8.17 121.89,24.49 37.21,16.33 67.2,41.96 89.99,76.89 22.78,34.94 34.17,78.98 34.17,132.14l0 115.05zm-128.72 -116.19c0,-39.49 -11.01,-68.73 -33.03,-87.71 -22.03,-18.99 -50.12,-28.48 -84.3,-28.48 -35.69,0 -64.17,9.3 -85.43,27.91 -21.26,18.6 -31.9,48.03 -31.9,88.28l0 29.62 234.66 0 0 -29.62z"/>
  <path id="2" class="fil0" d="M2129.4 5854.11c0,61.51 -22.41,108.4 -67.21,140.68 -44.81,32.27 -102.9,48.41 -174.28,48.41 -86.58,0 -163.66,-24.68 -231.24,-74.04 -5.32,-3.04 -7.98,-6.84 -7.98,-11.39 0,-4.56 1.14,-8.36 3.42,-11.4l43.29 -74.04c3.79,-6.07 7.59,-9.11 11.39,-9.11 1.52,0 5.31,1.52 11.39,4.56 25.82,18.98 53.54,33.41 83.15,43.28 29.62,9.87 59.24,14.81 88.85,14.81 31.14,0 56.58,-5.69 76.32,-17.09 19.75,-11.39 29.62,-27.71 29.62,-48.98 0,-20.5 -9.3,-35.31 -27.91,-44.42 -18.6,-9.12 -44.61,-16.71 -78.03,-22.78 -63.79,-12.16 -118.08,-31.71 -162.89,-58.67 -44.8,-26.96 -67.21,-70.43 -67.21,-130.43 0,-59.23 23.36,-103.85 70.06,-133.84 46.7,-30 103.85,-45 171.43,-45 67.59,0 133.66,17.47 198.21,52.4 6.08,3.8 9.11,7.98 9.11,12.53 0,3.04 -1.14,6.46 -3.41,10.25l-43.29 72.91c-3.04,5.31 -7.59,7.97 -13.67,7.97 -1.52,0 -4.56,-0.76 -9.11,-2.28 -46.33,-25.06 -94.55,-37.59 -144.67,-37.59 -32.65,0 -58.09,5.7 -76.32,17.09 -18.23,11.39 -27.34,26.58 -27.34,45.56 0,21.27 9.68,36.45 29.05,45.57 19.36,9.11 51.83,18.22 97.39,27.34 40.25,7.59 75.18,16.89 104.8,27.9 29.62,11.02 54.87,28.67 75.75,52.97 20.89,24.3 31.33,56.58 31.33,96.83z"/>
  <path id="3" class="fil0" d="M2714.9 5774.37c0,10.63 -5.7,15.95 -17.09,15.95l-346.29 0 0 31.89c0,34.18 10.83,60.18 32.47,78.03 21.64,17.85 51.07,26.77 88.28,26.77 32.65,0 61.51,-4.56 86.57,-13.67 25.06,-9.11 49.74,-22.02 74.04,-38.73 3.8,-2.28 7.22,-3.42 10.26,-3.42 5.31,0 9.49,2.28 12.53,6.84l46.7 62.65c3.04,3.04 4.56,6.45 4.56,10.25 0,6.08 -2.66,10.63 -7.98,13.67 -66.07,52.4 -143.15,78.6 -231.24,78.6 -44.8,0 -86,-8.16 -123.59,-24.49 -37.59,-16.33 -67.97,-41.2 -91.13,-74.61 -23.16,-33.42 -34.74,-74.43 -34.74,-123.03l0 -161.75c0,-53.16 11.77,-97.2 35.31,-132.14 23.54,-34.93 54.3,-60.56 92.27,-76.89 37.97,-16.32 78.98,-24.49 123.02,-24.49 44.05,0 84.68,8.17 121.89,24.49 37.21,16.33 67.2,41.96 89.99,76.89 22.78,34.94 34.17,78.98 34.17,132.14l0 115.05zm-128.72 -116.19c0,-39.49 -11.01,-68.73 -33.03,-87.71 -22.03,-18.99 -50.12,-28.48 -84.3,-28.48 -35.69,0 -64.17,9.3 -85.43,27.91 -21.26,18.6 -31.9,48.03 -31.9,88.28l0 29.62 234.66 0 0 -29.62z"/>
  <path id="4" class="fil0" d="M2849.31 6029.53c-11.39,0 -17.09,-5.7 -17.09,-17.09l0 -521.71c0,-9.87 4.18,-16.71 12.54,-20.5 68.34,-29.62 143.9,-44.43 226.68,-44.43 82.77,0 147.51,20.7 194.22,62.08 46.7,41.39 70.05,105.75 70.05,193.08l0 331.48c0,11.39 -5.31,17.09 -15.95,17.09l-99.1 0c-11.39,0 -17.09,-5.7 -17.09,-17.09l0 -329.2c0,-50.88 -11.01,-86.76 -33.03,-107.65 -22.02,-20.88 -55.06,-31.32 -99.1,-31.32 -39.49,0 -75.18,4.18 -107.08,12.53l0 455.64c0,11.39 -5.69,17.09 -17.09,17.09l-97.96 0z"/>
  <path id="5" class="fil0" d="M3620.49 6029.53c-9.87,0 -16.33,-4.56 -19.37,-13.67l-199.34 -558.16c-0.76,-1.52 -1.14,-3.8 -1.14,-6.84 0,-7.59 4.56,-11.39 13.67,-11.39l105.94 0c10.63,0 17.08,4.18 19.36,12.53l140.11 440.84 2.28 0 140.11 -440.84c2.28,-8.35 8.35,-12.53 18.23,-12.53l107.07 0c5.32,0 9.12,1.71 11.39,5.13 2.28,3.41 2.66,7.78 1.14,13.1l-200.48 558.16c-3.04,9.11 -9.49,13.67 -19.37,13.67l-119.6 0z"/>
  <path id="6" class="fil0" d="M4534.05 5813.1c0,70.62 -23.54,126.63 -70.62,168.02 -47.08,41.39 -110.12,62.08 -189.09,62.08 -78.98,0 -142.01,-20.69 -189.1,-62.08 -47.08,-41.39 -70.62,-97.4 -70.62,-168.02l0 -152.64c0,-71.39 23.54,-128.34 70.62,-170.87 47.09,-42.52 110.12,-63.79 189.1,-63.79 78.97,0 142.01,21.27 189.09,63.79 47.08,42.53 70.62,99.48 70.62,170.87l0 152.64zm-386.16 0c0,36.45 10.83,64.17 32.47,83.15 21.64,18.99 52.97,28.48 93.98,28.48 41,0 72.33,-9.49 93.97,-28.48 21.65,-18.98 32.47,-46.7 32.47,-83.15l0 -152.64c0,-37.21 -11.01,-65.88 -33.04,-86 -22.02,-20.13 -53.16,-30.19 -93.4,-30.19 -41.01,0 -72.34,9.87 -93.98,29.62 -21.64,19.74 -32.47,48.6 -32.47,86.57l0 152.64z"/>
  <path id="7" class="fil0" d="M4909.96 6039.78c-19.75,2.28 -41.39,3.42 -64.93,3.42 -60.75,0 -107.65,-19.37 -140.68,-58.1 -33.04,-38.73 -49.55,-93.02 -49.55,-162.89l0 -590.06c0,-11.39 5.69,-17.08 17.08,-17.08l97.97 0c11.39,0 17.08,5.69 17.08,17.08l0 585.51c0,37.21 6.08,63.98 18.23,80.3 12.15,16.33 31.13,24.49 56.95,24.49 9.12,0 23.55,-0.76 43.29,-2.27 11.39,0 17.09,5.69 17.09,17.08l0 84.3c0,11.39 -4.18,17.46 -12.53,18.22z"/>
  <path id="8" class="fil0" d="M5133.23 6029.53c-9.87,0 -16.33,-4.56 -19.37,-13.67l-199.34 -558.16c-0.76,-1.52 -1.14,-3.8 -1.14,-6.84 0,-7.59 4.56,-11.39 13.67,-11.39l105.94 0c10.63,0 17.08,4.18 19.36,12.53l140.11 440.84 2.28 0 140.11 -440.84c2.28,-8.35 8.35,-12.53 18.23,-12.53l107.07 0c5.32,0 9.12,1.71 11.39,5.13 2.28,3.41 2.66,7.78 1.14,13.1l-200.48 558.16c-3.04,9.11 -9.49,13.67 -19.37,13.67l-119.6 0z"/>
  <path id="9" class="fil0" d="M5700.5 5284.55c0,21.27 -7.02,39.11 -21.07,53.54 -14.05,14.43 -31.71,21.64 -52.97,21.64 -21.26,0 -39.11,-7.21 -53.54,-21.64 -14.43,-14.43 -21.64,-32.27 -21.64,-53.54 0,-21.26 7.21,-38.92 21.64,-52.97 14.43,-14.05 32.28,-21.07 53.54,-21.07 22.02,0 39.87,6.83 53.54,20.5 13.67,13.67 20.5,31.52 20.5,53.54zm-124.16 744.98c-11.39,0 -17.09,-5.7 -17.09,-17.09l0 -557.02c0,-10.63 5.7,-15.95 17.09,-15.95l99.1 0c10.63,0 15.95,5.32 15.95,15.95l0 557.02c0,11.39 -5.32,17.09 -15.95,17.09l-99.1 0z"/>
  <path id="10" class="fil0" d="M6218.79 5478.2c29.62,-18.23 57.72,-31.51 84.3,-39.87 26.58,-8.35 55.81,-12.53 87.71,-12.53 73.66,0 132.9,21.08 177.7,63.22 44.81,42.15 67.21,101.95 67.21,179.41l0 344.01c0,11.39 -5.32,17.09 -15.95,17.09l-99.1 0c-10.63,0 -15.95,-5.7 -15.95,-17.09l0 -348.56c0,-78.98 -39.11,-118.47 -117.33,-118.47 -37.97,0 -71.38,9.49 -100.24,28.48 9.87,29.61 14.81,60.37 14.81,92.26l0 346.29c0,11.39 -5.7,17.09 -17.09,17.09l-97.96 0c-11.39,0 -17.09,-5.7 -17.09,-17.09l0 -348.56c0,-41.01 -9.49,-71.2 -28.48,-90.56 -18.98,-19.37 -47.08,-29.05 -84.29,-29.05 -32.65,0 -63.03,4.18 -91.13,12.53l0 455.64c0,11.39 -5.69,17.09 -17.09,17.09l-97.96 0c-11.39,0 -17.09,-5.7 -17.09,-17.09l0 -521.71c0,-9.87 4.56,-16.71 13.67,-20.5 67.59,-29.62 136.32,-44.43 206.18,-44.43 65.31,0 120.37,17.47 165.17,52.4z"/>
  <path id="11" class="fil0" d="M7251.97 5774.37c0,10.63 -5.7,15.95 -17.09,15.95l-346.29 0 0 31.89c0,34.18 10.83,60.18 32.47,78.03 21.64,17.85 51.07,26.77 88.28,26.77 32.65,0 61.51,-4.56 86.57,-13.67 25.06,-9.11 49.74,-22.02 74.04,-38.73 3.8,-2.28 7.22,-3.42 10.26,-3.42 5.31,0 9.49,2.28 12.53,6.84l46.7 62.65c3.04,3.04 4.56,6.45 4.56,10.25 0,6.08 -2.66,10.63 -7.98,13.67 -66.07,52.4 -143.15,78.6 -231.24,78.6 -44.8,0 -86,-8.16 -123.59,-24.49 -37.59,-16.33 -67.97,-41.2 -91.13,-74.61 -23.16,-33.42 -34.74,-74.43 -34.74,-123.03l0 -161.75c0,-53.16 11.77,-97.2 35.31,-132.14 23.54,-34.93 54.3,-60.56 92.27,-76.89 37.97,-16.32 78.98,-24.49 123.02,-24.49 44.05,0 84.68,8.17 121.89,24.49 37.21,16.33 67.2,41.96 89.99,76.89 22.78,34.94 34.17,78.98 34.17,132.14l0 115.05zm-128.72 -116.19c0,-39.49 -11.01,-68.73 -33.03,-87.71 -22.03,-18.99 -50.12,-28.48 -84.3,-28.48 -35.69,0 -64.17,9.3 -85.43,27.91 -21.26,18.6 -31.9,48.03 -31.9,88.28l0 29.62 234.66 0 0 -29.62z"/>
  <path id="12" class="fil0" d="M7386.38 6029.53c-11.39,0 -17.09,-5.7 -17.09,-17.09l0 -521.71c0,-9.87 4.18,-16.71 12.54,-20.5 68.34,-29.62 143.9,-44.43 226.68,-44.43 82.77,0 147.51,20.7 194.22,62.08 46.7,41.39 70.05,105.75 70.05,193.08l0 331.48c0,11.39 -5.31,17.09 -15.95,17.09l-99.1 0c-11.39,0 -17.09,-5.7 -17.09,-17.09l0 -329.2c0,-50.88 -11.01,-86.76 -33.03,-107.65 -22.02,-20.88 -55.06,-31.32 -99.1,-31.32 -39.49,0 -75.18,4.18 -107.08,12.53l0 455.64c0,11.39 -5.69,17.09 -17.09,17.09l-97.96 0z"/>
  <path id="13" class="fil0" d="M8139.33 5823.35c0,31.14 7.79,55.44 23.36,72.9 15.56,17.47 37.78,26.2 66.63,26.2l46.71 -2.27c12.15,0 18.22,5.31 18.22,15.94l0 86.58c0,11.39 -5.31,17.46 -15.95,18.22 -25.82,1.52 -45.94,2.28 -60.37,2.28 -63.03,0 -113.91,-17.28 -152.64,-51.83 -38.73,-34.55 -58.09,-87.52 -58.09,-158.91l0 -520.57c0,-10.63 5.69,-15.95 17.08,-15.95l86.58 0c4.55,0 8.35,1.33 11.39,3.99 3.03,2.66 4.93,6.27 5.69,10.82l10.25 136.69 121.89 0c11.39,0 17.09,5.32 17.09,15.95l0 83.16c0,10.63 -5.7,15.94 -17.09,15.94l-120.75 0 0 260.86z"/>
  <path id="14" class="fil0" d="M8885.45 5813.1c0,70.62 -23.54,126.63 -70.62,168.02 -47.08,41.39 -110.12,62.08 -189.09,62.08 -78.98,0 -142.01,-20.69 -189.1,-62.08 -47.08,-41.39 -70.62,-97.4 -70.62,-168.02l0 -152.64c0,-71.39 23.54,-128.34 70.62,-170.87 47.09,-42.52 110.12,-63.79 189.1,-63.79 78.97,0 142.01,21.27 189.09,63.79 47.08,42.53 70.62,99.48 70.62,170.87l0 152.64zm-386.16 0c0,36.45 10.83,64.17 32.47,83.15 21.64,18.99 52.97,28.48 93.98,28.48 41,0 72.33,-9.49 93.97,-28.48 21.65,-18.98 32.47,-46.7 32.47,-83.15l0 -152.64c0,-37.21 -11.01,-65.88 -33.04,-86 -22.02,-20.13 -53.16,-30.19 -93.4,-30.19 -41.01,0 -72.34,9.87 -93.98,29.62 -21.64,19.74 -32.47,48.6 -32.47,86.57l0 152.64z"/>
  <path class="fil0" d="M3743.7 7045.69l320.09 0c11.39,0 17.09,-5.69 17.09,-17.08l0 -91.13c0,-11.39 -5.7,-17.09 -17.09,-17.09l-320.09 0 0 -213.01 349.71 0c11.39,0 17.08,-5.7 17.08,-15.95l0 -92.27c0,-11.39 -5.69,-17.08 -17.08,-17.08l-471.6 0c-10.25,0 -15.94,5.69 -15.94,17.08l0 780.29c0,11.39 5.69,17.09 15.94,17.09l487.54 0c11.39,0 17.09,-5.7 17.09,-17.09l0 -92.26c0,-10.26 -5.7,-15.95 -17.09,-15.95l-365.65 0 0 -225.55z"/>
  <path id="1" class="fil0" d="M4682.32 7346.42c9.12,-6.84 9.12,-13.67 3.42,-22.78l-47.84 -68.35c-5.7,-10.25 -13.67,-10.25 -23.92,-4.56 -42.15,27.34 -88.85,41.01 -132.14,41.01 -78.6,0 -124.16,-39.87 -124.16,-110.49l0 -159.48c0,-70.62 44.42,-110.49 125.3,-110.49 42.15,0 84.29,12.53 119.6,33.03 10.26,5.7 18.23,3.42 23.93,-4.55l44.42 -68.35c5.7,-9.11 4.56,-18.23 -4.56,-23.92 -58.09,-36.45 -120.74,-54.68 -186.81,-54.68 -157.2,0 -254.02,89.99 -254.02,228.96l0 158.34c0,138.97 95.68,230.1 255.16,230.1 79.74,0 143.53,-22.78 201.62,-63.79z"/>
  <path id="2" class="fil0" d="M5274.66 7180.11l0 -152.64c0,-143.53 -102.52,-234.66 -259.71,-234.66 -157.2,0 -259.72,91.13 -259.72,234.66l0 152.64c0,141.25 102.52,230.1 259.72,230.1 157.19,0 259.71,-88.85 259.71,-230.1zm-386.16 0l0 -152.64c0,-75.18 44.43,-116.19 126.45,-116.19 80.87,0 126.44,41.01 126.44,116.19l0 152.64c0,72.9 -45.57,111.63 -126.44,111.63 -82.02,0 -126.45,-38.73 -126.45,-111.63z"/>
  <path id="3" class="fil0" d="M5512.73 7396.54c11.4,0 17.09,-5.7 17.09,-17.09l0 -455.64c26.2,-6.84 68.35,-12.53 107.08,-12.53 83.15,0 132.13,31.89 132.13,138.97l0 329.2c0,11.39 6.84,17.09 17.09,17.09l99.1 0c10.26,0 15.95,-5.7 15.95,-17.09l0 -331.48c0,-182.26 -107.07,-255.16 -264.27,-255.16 -80.88,0 -160.62,15.95 -226.68,44.43 -9.12,4.55 -12.54,11.39 -12.54,20.5l0 521.71c0,11.39 5.7,17.09 17.09,17.09l97.96 0z"/>
  <path id="4" class="fil0" d="M7047.11 6845.21c-42.14,-33.03 -97.96,-52.4 -165.17,-52.4 -71.76,0 -143.52,17.09 -206.18,44.43 -10.25,4.55 -13.67,11.39 -13.67,20.5l0 521.71c0,11.39 5.7,17.09 17.09,17.09l97.96 0c11.4,0 17.09,-5.7 17.09,-17.09l0 -455.64c22.78,-6.84 52.4,-12.53 91.13,-12.53 74.04,0 112.77,36.45 112.77,119.61l0 348.56c0,11.39 6.84,17.09 17.09,17.09l97.96 0c11.39,0 17.09,-5.7 17.09,-17.09l0 -346.29c0,-34.17 -5.7,-64.93 -14.81,-92.26 29.62,-19.37 62.65,-28.48 100.24,-28.48 82.02,0 117.33,44.42 117.33,118.47l0 348.56c0,11.39 5.7,17.09 15.95,17.09l99.1 0c10.25,0 15.95,-5.7 15.95,-17.09l0 -344.01c0,-159.47 -102.52,-242.63 -244.91,-242.63 -66.07,0 -115.05,17.09 -172.01,52.4z"/>
  <path id="5" class="fil0" d="M7718.05 7396.54c10.26,0 15.95,-5.7 15.95,-17.09l0 -557.02c0,-10.25 -5.69,-15.95 -15.95,-15.95l-99.1 0c-10.25,0 -17.09,5.7 -17.09,15.95l0 557.02c0,11.39 6.84,17.09 17.09,17.09l99.1 0zm25.06 -744.98c0,-43.28 -30.75,-74.04 -74.04,-74.04 -42.15,0 -75.18,30.76 -75.18,74.04 0,42.15 33.03,75.18 75.18,75.18 43.29,0 74.04,-33.03 74.04,-75.18z"/>
  <path id="6" class="fil0" d="M8314.94 7346.42c9.12,-6.84 9.12,-13.67 3.42,-22.78l-47.84 -68.35c-5.7,-10.25 -13.67,-10.25 -23.92,-4.56 -42.15,27.34 -88.85,41.01 -132.14,41.01 -78.6,0 -124.16,-39.87 -124.16,-110.49l0 -159.48c0,-70.62 44.42,-110.49 125.3,-110.49 42.15,0 84.29,12.53 119.6,33.03 10.26,5.7 18.23,3.42 23.93,-4.55l44.42 -68.35c5.7,-9.11 4.56,-18.23 -4.56,-23.92 -58.09,-36.45 -120.74,-54.68 -186.81,-54.68 -157.2,0 -254.02,89.99 -254.02,228.96l0 158.34c0,138.97 95.68,230.1 255.16,230.1 79.74,0 143.53,-22.78 201.62,-63.79z"/>
  <path id="7" class="fil0" d="M8907.28 7180.11l0 -152.64c0,-143.53 -102.52,-234.66 -259.71,-234.66 -157.2,0 -259.72,91.13 -259.72,234.66l0 152.64c0,141.25 102.52,230.1 259.72,230.1 157.19,0 259.71,-88.85 259.71,-230.1zm-386.16 0l0 -152.64c0,-75.18 44.43,-116.19 126.45,-116.19 80.87,0 126.44,41.01 126.44,116.19l0 152.64c0,72.9 -45.57,111.63 -126.44,111.63 -82.02,0 -126.45,-38.73 -126.45,-111.63z"/>
  <path id="8" class="fil0" d="M6539.07 7180.11l0 -152.64c0,-143.53 -102.52,-234.66 -259.71,-234.66 -157.2,0 -259.72,91.13 -259.72,234.66l0 152.64c0,141.25 102.52,230.1 259.72,230.1 157.19,0 259.71,-88.85 259.71,-230.1zm-386.16 0l0 -152.64c0,-75.18 44.43,-116.19 126.45,-116.19 80.87,0 126.44,41.01 126.44,116.19l0 152.64c0,72.9 -45.57,111.63 -126.44,111.63 -82.02,0 -126.45,-38.73 -126.45,-111.63zm34.18 -456.78c7.97,0 13.67,-3.42 19.36,-9.12l74.05 -85.43 71.76 85.43c4.56,5.7 11.39,9.12 20.5,9.12l80.88 0c13.67,0 17.09,-7.98 7.97,-20.51l-127.58 -150.36c-4.55,-6.84 -11.39,-10.25 -20.5,-10.25l-67.21 0c-9.11,0 -14.81,3.41 -20.5,10.25l-128.72 150.36c-9.11,12.53 -4.56,20.51 9.11,20.51l80.88 0z"/>
  <polygon class="fil1" points="31692.32,8036.56 17931.86,8036.56 17931.86,108.28 31692.32,108.28 "/>
  <polygon class="fil2" points="31623.39,7968.08 30554.35,7968.08 30554.35,177.38 31623.39,177.38 "/>
  <polygon class="fil2" points="17897.59,7968.08 10106.94,7968.08 10106.94,177.38 17897.59,177.38 "/>
  <path class="fil1" d="M13526.85 2885.02l9.31 -0.23c-2.37,-0.56 -4.96,-1.01 -7.56,-1.8 0,0 -0.79,1.63 -1.75,2.03z"/>
  <path class="fil1" d="M13955.78 1338.1c-10.56,5.59 -25.46,8.36 -45.22,8.36 -0.96,10.95 -9.94,19.3 -20.89,19.3 -11.18,0 -20.1,-8.75 -21.11,-19.47 -1.81,0 -3.78,0.17 -4.97,0.79 -5.81,1.35 -9.37,3.78 -11.35,5.59 -2.03,1.35 -3.61,2.37 -5.81,2.37l-1.75 -0.4c-1.41,0 -3.39,-1.58 -4.01,-4.57 -0.79,-4.8 3.39,-15.13 15.53,-20.94 7.79,-4.35 18.51,-6.38 33.87,-6.38 5.75,0 11.12,0 16.93,0.62l8.75 0c14.57,0 25.52,-0.79 32.86,-3.22 6.15,-1.58 9.37,-4.18 10.95,-5.93 1.58,-1.01 3.22,-2.99 5.36,-2.99l0.23 0c2.77,0 4.97,2.2 5.98,5.14 0.96,5.59 -3.61,16.14 -15.35,21.73zm2059.84 852.55c-848.37,-677.71 -1274.19,-750.59 -1488.88,-744.61 -214.29,5.98 -99.19,200.12 -99.19,200.12 140.4,235.02 10.56,256.75 10.56,256.75 -98.34,17.33 -186.01,-86.65 -229.03,-137.63 0,0 -74.63,-92.58 -34.6,-314.44 0,0 152.7,47.98 171.05,-15.13 20.88,-71.53 -84.85,-67.91 -84.85,-67.91 0,0 116.52,-12.59 126.68,-82.09 11.12,-78.86 32.06,-118.49 32.06,-118.49 -55.38,59.95 -171.5,107.37 -226.03,106.36 -54.2,-1.19 -8.19,-122.67 -8.19,-122.67 -35.45,19.3 -61.31,43.01 -75.87,59.72 -55.78,63.34 -82.87,56.17 -194.37,47.59 -80.44,-6.15 -119.28,59.56 -119.28,59.56 0,0 -58.15,-20.32 -101.39,-14.9 -105.96,13.09 -93.2,77.22 -93.2,77.22 21.33,-14.9 76.66,-25.46 108.55,-22.69 61.93,4.57 71.3,18.35 70.68,39.46 -1.18,40.42 -85.02,29.86 -85.02,29.86 0,0 6.38,10.56 43.59,20.72 40.42,11.12 109.18,-7.39 117.93,65.49 7.17,63.34 -8.75,194.19 -35.06,252.34 -11.74,25.91 -37.82,57.98 -71.3,84.85l0 0.39 -0.23 0c-5.36,4.18 -11.34,8.58 -16.88,12.76 -27.09,21.12 -89.42,93.77 -116.12,160.89 6.55,-43.01 21.68,-87.22 61.14,-131.25 -34.27,16.54 -51.37,16.37 -87.84,9.99 0,0 -129.62,-21.73 10.56,-256.75 0,0 115.1,-194.14 -99.19,-200.12 -214.47,-5.98 -640.46,66.9 -1488.66,744.61 -167.67,130.69 -386.53,299.14 -224.06,308.91 0,0 75.08,0 197.58,-72.88l0.4 0c38.05,-38.27 334.37,-335.55 408.43,-346.11 0,0 -81.4,65.09 -344.92,350.06 81.46,9.6 342.16,27.49 628.37,-168.85 0,0 25.29,-16.31 113.08,-57.18 -14.12,10.38 -28.29,22.52 -41.38,35.84l-64.13 65.15 89.98 -15.53c22.13,-3.78 40.65,-5.98 57.59,-6.6l29.24 39.07 13.38 108.33c5.53,25.06 12.3,53.97 23.09,81.46 42.62,109.74 234.16,377.95 398.89,377.95 11.74,0 22.13,-0.4 31.45,-0.79l156.14 -3.39c-19.3,-3.38 -43.41,-10.95 -69.89,-25.46 -105.96,-57.75 0,0 -117.7,0 -123.07,0 -278.82,-185.22 -346.34,-307.1 -0.17,-0.4 -0.39,-0.62 -0.56,-0.79 -4.8,-8.58 -8.81,-16.32 -12.59,-23.88 -0.4,-1.24 -1.19,-2.43 -1.58,-3.61 -3.95,-7.96 -7.34,-16.15 -10.16,-23.32 -9.77,-25.06 -15.92,-51.37 -21.91,-77.23 45.39,48.38 171.9,122.68 185.23,8.13 9.93,-79.65 -112.74,-156.14 -182.01,-172.23 -47.42,-10.79 -89.64,-7.57 -137.07,0.56 148.02,-150.73 330.65,-62.1 479.97,118.89 64.52,78.3 244.38,68.14 195.77,-67.12 -26.47,-75.25 -103.76,-131.03 -178.44,-142.77 -1.19,0 -3.39,-0.17 -4.58,-0.17 1.02,-0.85 1.81,-0.85 2.83,0 192.95,9.71 348.48,19.08 460.59,189.96 -1.58,-32.85 -7.16,-65.54 -15.52,-95.97 -34.66,-120.52 -25.86,-259.34 132.27,-283.22 -65.94,44.43 -4.8,134.41 57.75,76.27 35.06,-32.24 45.61,-52.16 34.04,-93.77 -8.35,-30.71 -12.93,-75.87 -36.47,-98.4 109.18,55.55 153.55,165.52 77.51,273.23 -15.13,21.34 -54.36,50.98 -44.43,81.24 10.33,31.5 42,28.51 66.73,11.8 33.03,-22.13 66.5,-72.94 54.76,-106.19 42.23,50.41 31.27,118.1 18.12,180.65 88.63,-62.32 193.58,-107.77 305.3,-122.5 61.53,-7.96 131.25,-12.71 192.56,-4.18 36.86,5.59 91.62,12.36 124.08,32.29 -125.27,25.29 -117.08,95.18 -118.89,123.86 188.38,49.39 284.97,-80.67 334.37,-173.09 61.93,119.91 25.52,214.13 -60.52,289.38 177.43,-153.72 400.48,-85.64 466.81,33.48 -94.39,-18.35 -187.82,17.1 -250.37,84.85 -53.74,58.54 -183.81,229.81 -288.36,278.02 -3.55,1.75 -6.77,2.77 -10.16,4.18 -4.74,1.98 -9.93,3.95 -14.73,5.37 -1.75,0.16 -3.39,0.56 -5.14,0.79 -5.98,1.58 -12.19,2.59 -17.73,2.59 -7.39,0.17 -13.77,0.57 -19.92,0.79 -1.98,0 -3.79,0 -5.59,0.4 -4.41,0 -8.58,0.22 -12.54,0.22l-2.2 0c-16.54,0.79 -27.09,1.36 -34.83,1.36l-2.43 0c-0.79,-0.17 -1.97,-0.17 -2.99,-0.17 -0.79,-0.23 -1.58,-0.23 -2.14,-0.23 -0.85,-0.17 -2.04,-0.17 -2.83,-0.39 -0.79,-0.17 -1.58,-0.17 -2.59,-0.57 -0.57,0 -1.19,0 -1.36,-0.22 -1.63,-0.62 -3.21,-1.19 -4.63,-1.98 -0.17,-0.22 -0.96,-0.22 -1.18,-0.22 -1.36,-0.96 -2.77,-1.58 -4.57,-2.21 0,0 -0.4,-0.16 -0.57,-0.56 -5.59,-2.82 -12.59,-6.6 -23.14,-12.14 -11.75,-6.21 -28.46,-13.77 -52.34,-24.72 -71.69,-30.88 -209.94,37.42 -278.03,-0.17l-382.58 7.17c-32.85,23.09 -66.33,39.8 -100.99,51.93l42.06 -0.96c18.12,2.77 37.99,-0.79 68.31,-21.51l366.6 -6.77c17.16,7.73 37.48,11.12 61.93,11.12 29.3,0 60.97,-4.97 91.62,-10.16 20.32,-3.16 40.65,-6.32 59.56,-8.13l45.39 0.79c5.19,1.02 10.16,2.37 14.56,4.18 34.83,15.13 52.95,24.89 65.15,31.44 16.88,8.81 26.87,13.95 48.55,13.95 5.81,0 13.15,-0.17 23.71,-0.79 11.96,-0.57 28.11,-1.36 50.8,-1.81 32.86,-0.96 67.52,-16.71 103.93,-41.61l83.44 1.42 26.31 -98.18c34.43,-36.24 69.49,-76.26 103.76,-116.74 15.52,-18.12 29.3,-34.04 39.4,-45.16 57.36,-62.38 142.6,-91.62 223.27,-76.33l35.29 7.17 52.16 24.9c69.1,-137.8 -51.2,-240.38 -108.73,-281.36 -39.63,-26.7 -60.74,-62.55 -60.74,-62.55 92.97,42.79 119.45,59.95 119.45,59.95l0 0.17c1.02,-0.17 1.64,-0.17 1.64,-0.17 289.71,198.94 554.82,177.83 631.31,168.85 -263.3,-285.14 -344.53,-350.06 -344.53,-350.06 78.86,11.35 411.43,349.1 412.61,350.29 118.33,68.7 190.19,68.7 190.19,68.7 162.7,-9.77 -56.34,-178.22 -223.84,-308.91z"/>
  <path class="fil1" d="M13522.56 2881.92c-4.35,-1.19 -8.52,-2.38 -13.32,-3.17 5.19,1.98 9.37,3.17 13.32,3.17z"/>
  <path class="fil1" d="M13460.01 2838.62l-14.96 5.98c13.94,6.6 31.27,15.92 54.36,28.51 -12.92,-10.16 -27.88,-30.88 -39.4,-34.49z"/>
  <path class="fil1" d="M13499.53 2873.16c3.21,2.77 7,4.58 9.99,5.37l-5.82 -2.99c-1.18,-0.79 -2.76,-1.58 -4.17,-2.38z"/>
  <path class="fil1" d="M13731.15 2860.58l-109.74 0c-4.18,1.58 -63.12,0 -67.69,0 -3.39,0 -11.18,22.07 -31.1,21.5 9.99,2.21 19.3,5.2 26.7,8.13 73.1,10 147.96,-0.96 219.66,-29.46 -10.96,-1.36 -23.32,-1.75 -37.83,-0.17z"/>
  <path class="fil1" d="M12818.31 3168.36l0 1737.61c0,530.94 140,736.09 141.59,738.29l3.38 5.76c357.29,626.74 843.86,626.74 1027.05,626.74l11.74 0c200.35,0 669.19,0 1026.42,-626.74l4.24 -6.38c0.56,-1.58 140.96,-206.73 140.96,-737.67l0 -1737.61c-1.58,-18.52 -4.35,-74.07 8.75,-128.04l-259.29 -174.66c-45.61,28.9 -126.85,52.16 -270.41,52.16l-1313.43 0c-143.61,0 -225.07,-23.26 -270.63,-52.16l-259.34 174.66c13.38,53.97 10.55,109.52 8.97,128.04zm1183.76 3238.24l0 0 -11.74 0c-92.19,0 -283.79,0 -497.86,-88.41 -258.1,-106.98 -473.58,-309.08 -640.51,-601.84 -22.08,-32.07 -163.66,-263.07 -163.66,-810.38l0.4 -1746.36c2.76,-31.28 0,-87.45 -14.34,-111.95l20.26 -86.6 346.96 -233.04 23.32 -17.5c31.44,31.45 51.14,38.62 51.14,38.62 0,0.62 53.58,38.67 223.27,38.67l1313.43 0c169.64,0 242.13,-43.64 242.52,-43.81 0,0 34.1,-19.14 52.79,-39.23l2.42 23.25 346.91 233.04 20.09 86.6c-14.34,24.5 -16.71,80.67 -14.34,112.34l0.4 5.36 0 1740.61c0,547.31 -141.58,778.31 -163.26,810.38 -394.55,690.25 -934.46,690.25 -1138.2,690.25z"/>
  <path class="fil1" d="M12979.6 5476.93c-10.56,0 -20.89,-4.4 -27.66,-13.94 -10.79,-15.13 -7,-36.24 7.96,-47.19 3.16,-2.21 332.95,-241.23 469.57,-375.42 413.06,-405.66 634.7,-253.52 692.84,-196.96 7.17,5.76 26.14,14.51 50.19,-9.6 34.49,-34.04 67.74,-46.96 99.81,-39.23 32.06,8.41 55.55,36.07 69.72,83.27 19.47,64.92 59.89,156.94 187.36,207.29 141.19,55.38 240.38,190.42 254.15,209.95 11.13,11.91 111.89,112.28 255.9,104.72 18.69,-0.96 34.27,12.98 35.46,31.9 0.96,18.51 -12.99,34.26 -31.67,35.45 -185.45,9.76 -305.92,-122.9 -311.11,-128.66 -0.57,-0.79 -1.59,-1.97 -2.38,-3.22 -1.01,-1.35 -95.57,-136.39 -225.02,-187.36 -116.12,-45.84 -190.41,-128.09 -227.44,-251.16 -7.79,-26.7 -17.73,-35.85 -21.51,-36.81 -4.18,-1.01 -16.32,2.54 -35.23,21.51 -54.42,54.36 -116.12,36.24 -144.24,11.35 -191.93,-186.24 -533.08,130.63 -599.81,195.72 -140,138.03 -463.25,372.25 -476.96,381.79 -6.21,4.4 -13.16,6.6 -19.93,6.6z"/>
  <path class="fil1" d="M15168.83 5550.44c-4.17,0 -8.35,-0.4 -12.75,-1.59 -1273.75,-249.74 -2275.33,-3.21 -2285.27,-0.62 -34.66,8.98 -69.89,-12.3 -78.86,-46.96 -8.75,-34.67 12.14,-69.95 47.02,-78.7 10.33,-2.77 1037.94,-257.09 2342.23,-1.19 35.22,7.17 58.54,41.21 51.14,76.27 -5.92,31.11 -33.02,52.62 -63.51,52.79z"/>
  <path class="fil1" d="M13466.61 3871.36l246.99 -632.49c30.42,1.58 55.71,-8.75 63.67,-29.25 3.62,-9.37 2.6,-19.53 -0.96,-30.31l0.4 0.39 -38.22 -130.01 -118.1 71.47c-1.64,0.79 -2.82,1.81 -4.18,2.43l-0.84 0.39c-5.93,4.97 -10.73,10.56 -13.33,17.5 -8.18,20.1 3.62,44.83 26.88,64.53l-20.5 52.16c0,0 -17.95,38.84 -120.86,-1.18 -103.2,-40.2 -80.67,-133.4 -80.67,-133.4 0,0 -385.35,88.57 -185.22,475.73 0,0 46.4,-83.61 149.37,-43.59 102.74,40.42 88.41,84.85 88.41,84.85l-87.85 224.23 95.01 6.55z"/>
  <path class="fil1" d="M13274 4119.58l-186.24 474.83c-8.92,23.09 2.82,49.79 25.91,58.54 23.09,9.37 49.57,-2.2 58.77,-25.52l180.99 -464.83 -79.43 -43.02z"/>
  <path class="fil1" d="M14274.57 3676.04l-111.55 -65.09 17.95 134.41 -253.93 0 112.51 -134.41 -157.33 65.09 89.65 -254.1 111.49 65.54 -17.89 -134.86 254.09 0 -112.51 134.86 157.11 -65.54 -89.59 254.1zm-543.08 -398.28l-210.51 542.46 1013.66 0 156.94 -542.46 -960.09 0z"/>
  <path class="fil1" d="M14639.42 4285.78l291.52 -129.28 -205.49 -345.94 -281.81 217.51c24.28,43.02 110.31,191.55 195.78,257.71z"/>
  <path class="fil1" d="M13375.78 4134.26c0.62,2.2 15.36,51.83 116.92,36.47l93.03 -85.24c-11.97,-20.33 -34.49,-62.95 -44.2,-106.92 -15.58,-67.75 -34.1,-90.84 -73.73,-91.63 -15.92,-0.62 -33.42,-1.8 -50.36,-2.99 -34.66,-2.2 -81.85,-5.59 -93.59,2.99 -11.97,8.58 -14.17,13.33 -14.57,14.34 0,0 1.58,1.81 5.36,4.41 5.99,4.34 34.27,10.33 53.18,14.5 47.65,9.94 72.49,15.92 81.29,31.84 3.56,5.59 4.18,12.2 2.21,18.58l-1.25 2.93c-6.94,22.36 -29.07,88.86 22.3,157.34l-28.22 21.33c-8.19,-10.95 -14.57,-21.33 -19.93,-31.89 -17.56,5.81 -33.48,9.99 -48.83,12.59l0 1.97 0.39 -0.62z"/>
  <path class="fil1" d="M14085.62 4375.43c55.77,-21.74 237.16,-99.19 379.59,-243.37 -22.13,-34.44 -39.63,-64.52 -49.79,-82.48l-87.45 67.92c-21.11,13.77 -160.72,106.35 -263.07,151.97 1.02,10.33 5.76,53.18 20.72,105.96z"/>
  <path class="fil1" d="M14172.5 4594.92c-108.56,-92.25 -135.83,-261.89 -141.41,-311.28 -14.74,4.96 -27.89,8.75 -39.01,10.33 -5.2,25.12 -12.14,49.39 -20.33,72.31 -29.86,101.17 -83.83,175.63 -122.67,219.66 24.67,19.31 83.04,57.98 163.49,57.98 52.61,0 106.36,-16.77 159.93,-49z"/>
  <path class="fil1" d="M14485.25 4162.32c-149.6,149.15 -333.58,225.64 -389.19,246.98 20.55,59.11 53.58,124.03 107.55,165.29 0.84,-0.22 1.24,-1.01 2.42,-1.8 183.42,-132.84 343.52,-233.43 400.08,-268.27 -43.8,-37.42 -86.65,-91.79 -120.86,-142.2z"/>
  <path class="fil1" d="M13791.78 4594.46c5.14,-5.19 12.7,-12.58 21.29,-21.9 13.32,-16.37 85.24,-105.57 125.26,-218.08 8.58,-28.67 14.96,-59.78 17.96,-92.8 -52.79,-9.77 -221.07,-47.42 -347.53,-149.38l-87.27 80.28c18.97,50.97 109.18,275.6 270.29,401.88z"/>
  <path class="fil1" d="M13407.28 4071.04c-1.01,-5.54 -2.2,-11.13 -2.42,-16.49 -8.75,2.54 -20.1,3.78 -32.86,3.78 -37.26,0 -86.03,-10.55 -112.34,-26.53 -0.4,8.19 1.02,17.56 6.6,23.32 29.47,30.48 104.72,24.27 141.02,15.92z"/>
  <path class="fil1" d="M13295.39 4104.74c16.15,11.74 50.36,20.49 120.87,-2.6 -1.36,-4.18 -2.99,-7.96 -4.35,-11.97 -15.35,3.62 -40.02,7.4 -66.56,7.4 -22.07,0 -45.16,-2.37 -64.3,-10.16 3.17,6.15 7.34,12.13 14.34,17.33z"/>
  <path class="fil1" d="M13294.1 3934.48c-4.8,-3.22 -8.59,-7.17 -11.75,-10.96 -4,1.36 -8.18,3.56 -10.38,6.55 -3.39,4.41 -3.39,11.18 -0.57,19.7 6.95,23.32 95.35,43.02 136.62,45.45 1.75,-10.56 4.74,-19.93 6.77,-26.7 -11.97,-4.41 -37.65,-10.39 -54.19,-13.78 -33.65,-7.17 -55.16,-12.13 -66.5,-20.26z"/>
  <path class="fil1" d="M13403.5 4034.12l0.23 0.62c0,-7.4 0.56,-13.55 1.18,-19.93 -33.47,-2.37 -112.11,-15.75 -141.98,-43.41 -5.42,11.96 -10.16,27.88 -2.82,36.86 18.12,22.07 117.14,39.8 143.39,25.86z"/>
  <path class="fil1" d="M12912.64 6645.84l-90.21 107.94c62.5,30.43 99.53,45.16 99.53,45.16l57.58 -125.43c-24.27,-10.17 -46.4,-18.75 -66.9,-27.67z"/>
  <path class="fil1" d="M12761.8 6577.54c-3.22,-1.58 -5.59,-4.41 -6.38,-8.19 -1.18,-2.99 -0.79,-6.94 1.19,-9.94l100.99 -176.86 -276.45 241.16c85.02,50.81 159.31,90.05 216.9,118.5l89.42 -106.92c-78.3,-33.48 -124.09,-56.96 -125.67,-57.75z"/>
  <path class="fil1" d="M12761.8 6577.54c-3.22,-1.58 -5.59,-4.41 -6.38,-8.19 -1.18,-2.99 -0.79,-6.94 1.19,-9.94l100.99 -176.86 -419.44 365.87 -49.79 245.51 253.3 -66.1 245.8 -292.54c-78.3,-33.48 -124.09,-56.96 -125.67,-57.75z"/>
  <path class="fil1" d="M15571.96 6748.31l-419.61 -365.82 101.16 177.04c1.81,2.99 1.98,6.55 1.19,9.93 -0.96,3.39 -3.39,6.61 -6.55,8.19 -1.41,0.79 -47.19,24.27 -125.1,58.15l245.4 292.14 253.3 66.16 -49.79 -245.79z"/>
  <path class="fil1" d="M15043.11 6669.22l51.43 112.73c14.91,-6.38 44.2,-19.31 84.23,-38.61l-80.67 -96.99c-17.11,7.57 -35.23,14.91 -54.99,22.87z"/>
  <path class="fil1" d="M13148.84 6128.91l-91.06 79.48c33.09,17.33 78.3,39.8 134.25,63.91l55.55 -66.34 -98.74 -77.05z"/>
  <path class="fil1" d="M14855.41 6123.83l-98.17 76.09 61.3 73.11c56.18,-24.33 101.39,-46.63 134.08,-64.36l-97.21 -84.84z"/>
  <path class="fil1" d="M11980.1 5711.49l-40.02 -48.6 -54.37 44.82 40.42 48.78c16.54,20.55 37.43,17.95 50.98,7 13.72,-11.57 19.93,-31.5 2.99,-52z"/>
  <path class="fil1" d="M12609.32 6288.78l-100.99 -71.13 -29.07 41.44 97.21 68.7 -22.13 31.67 -97.38 -69.1 -28.68 40.59 100.77 71.3 -23.09 33.08 -134.64 -94.39c42,-59.95 84.45,-120.3 126.45,-180.02l134.87 95.01 -23.32 32.85zm-343.57 -33.31l115.34 -141.18 -54.2 -43.98 23.94 -29.3c49.17,40.25 90.6,74.07 140.17,114.71l-23.88 29.3 -53.97 -44.26 -115.33 141.25 -32.07 -26.54zm-146.94 -123.63c-38.05,-36.24 -49,-90.83 -3.62,-138.82l86.43 -91.62 30.09 28.28 -86.43 91.8c-27.09,28.67 -25.06,59.39 -0.39,83.04 25.12,23.14 54.98,19.93 80.67,-7.34l86.6 -91.79 29.92 28.45 -86.66 91.62c-44.43,47.37 -96.42,44.43 -136.61,6.38zm-165.3 -175.06l133.4 -123.86 -47.36 -51.59 27.26 -25.29c43.64,46.4 80.05,86.03 123.69,132.43l-27.89 25.86 -47.59 -50.98 -133.45 124.09 -28.06 -30.66zm-53.57 -61.36l-1.98 1.58 -31.67 -37.99 16.09 -96.59 -25.46 -30.71 -56.96 46.79 -26.08 -31.83 169.64 -140.4c22.36,26.47 44.26,53.97 66.56,80.84 32.85,40.02 23.71,83.27 -5.99,107.54 -22.92,19.14 -55.15,28.11 -88.63,1.02l-15.52 99.75zm-171.9 -210.29l174.89 -133.06 25.07 32.69 -174.84 133.23 -25.12 -32.86zm-92.41 -127.24l129.67 -200.75 26.7 37.99 -103.19 151.97 178.84 -42.62 26.3 38.05 -233.6 50.58 -24.72 -35.22zm118.55 -468.05l-310.89 376.82c299.48,572.77 782.27,941.57 1114.44,1142.94l339.95 -296.77 29.7 -51.77c-738.46,-351.3 -1173.2,-1171.22 -1173.2,-1171.22z"/>
  <path class="fil1" d="M13248.59 6468.02l-58.14 -21.91 -27.89 72.72 58.15 22.29c49.56,18.92 77.28,-53.96 27.88,-73.1z"/>
  <path class="fil1" d="M14001.22 6598.48c-51.99,-0.23 -73.27,41.04 -73.1,78.07 0.39,36.25 23.93,75.09 71.52,75.26 49.96,0.39 74.29,-40.99 73.11,-78.47 -1.41,-35.85 -19.53,-74.07 -71.53,-74.86z"/>
  <polygon class="fil1" points="14424.17,6673.96 14504.61,6659 14447.26,6574.37 "/>
  <path class="fil1" d="M14801.27 6666.05l-44.43 -153.55 -42.45 111.95 -7.57 2.14 -94.16 -72.65 44.6 153.95 -39.86 11.34 -61.13 -211.3 45.61 -13.32 92.41 71.86 39.86 -110.14 45.61 -13.32 61.31 211.7 -39.8 11.34zm-247.54 65.55l-25.75 -37.49 -113.07 20.95 -10.95 44.2 -44.26 8.35 56.96 -234.39 44.65 -8.35 136.79 198.54 -44.37 8.19zm-309.54 50.58c-52.55,4.57 -99.75,-23.54 -105.73,-89.42l-11.52 -125.5 41.21 -3.39 11.12 125.27c3.22,39.24 27.5,58.54 61.76,55.16 34.27,-2.99 51.77,-27.66 48.38,-65.09l-11.12 -125.27 40.82 -3.78 11.12 125.43c5.81,64.76 -31.05,101.39 -86.04,106.59zm-155.3 18.91l-26.7 -26.48c-16.93,10.95 -37.82,16.09 -62.72,15.92 -78.3,-1.01 -112.11,-57.97 -112.11,-115.1 0,-57.59 36.8,-114.94 114.09,-113.93 77.45,0.57 111.55,56.57 112.11,113.53 0,24.9 -6.94,50.98 -21.28,71.3l26.08 26.08 -29.47 28.68zm-301.34 -161.12c44.99,10.16 86.65,26.48 80.84,78.64 -4.74,49 -49.96,65.32 -98.96,60.58 -44.83,-4.58 -77.68,-21.74 -89.82,-63.57l36.24 -14.51c7.17,25.29 31.5,38.61 58.15,41.44 25.91,2.14 50.98,-4.41 53.4,-28.12 2.21,-20.71 -18.51,-31.44 -47.19,-37.42 -44.26,-9.77 -84.45,-26.09 -79.26,-75.09 4.57,-44.99 50.75,-58.93 91.17,-55.38 34.1,4.01 68.7,17.33 81.69,52.62l-34.66 13.32c-6.16,-13.15 -25.69,-27.1 -49.4,-29.47 -30.88,-3.22 -46.8,7.96 -47.98,24.5 -2.21,19.08 19.92,26.48 45.78,32.46zm-237.55 105.34c-51.83,-10.16 -89.43,-50.35 -76.89,-115.1l24.27 -123.69 40.25 7.79 -23.93 123.69c-7.96,38.78 10.38,63.9 43.86,70.45 33.65,6.61 57.13,-12.31 64.53,-49.34l24.27 -123.69 40.42 7.96 -24.27 123.86c-12.59,63.73 -57.98,88.63 -112.51,78.07zm-111.95 -28.28l-148.98 -42 59.95 -211.7 39.86 11.35 -49.23 174.83 108.73 30.66 -10.33 36.86zm-231 -140.17l-58.15 -22.75 -23.15 60.57 -38.84 -14.96 78.7 -205.32c32.63,12.37 64.92,24.28 97.38,36.87 100.37,38.61 44.82,183.81 -55.94,145.59zm1811.06 -375.24c-71.7,43.64 -465.63,265.89 -1013.27,265.89 -540.48,0 -940.62,-222.48 -1013.11,-265.89l-205.48 358.47c88.97,44.04 647.23,305.52 1218.59,305.52 582.31,0 1131.36,-261.48 1219.04,-305.52l-205.77 -358.47z"/>
  <path class="fil1" d="M16026.97 5678.47c-33.87,39.23 -16.93,82.82 11.52,106.36 28.11,23.09 69.89,33.64 103.98,-5.03 34.27,-39.01 17.5,-79.43 -9.2,-103.76 -27.26,-24.89 -72.26,-36.41 -106.3,2.43z"/>
  <polygon class="fil1" points="15660.88,6168.54 15571.45,6119.14 15595.96,6218.5 "/>
  <path class="fil1" d="M15896.28 5825.59l-45.21 44.25 49.56 50.19 44.82 -44.82c19.14,-18.35 14.74,-39.07 2.21,-51.37 -12.14,-12.59 -32.86,-16.94 -51.38,1.75z"/>
  <path class="fil1" d="M16171.15 5804.81c-50.97,57.98 -116.29,48.21 -159.93,10.16 -43.41,-38.05 -62.89,-104.15 -12.7,-161.11 49.96,-57.13 118.49,-47.03 161.29,-8.98 42.22,38.05 62.32,101.56 11.34,159.93zm-118.27 120.7l-97.38 -7 -28.28 27.72 51.37 52.55 -29.47 29.08 -154.73 -156.72c24.44,-24.33 49.56,-48.77 74.63,-73.27 36.86,-36.47 80.89,-31.11 107.54,-3.78 21.11,21.28 32.91,52.95 8.98,88.17l100.37 6.38 2.2 2.43 -35.23 34.44zm-202.15 196.17c-39.86,34.44 -94.79,40.03 -138.43,-10.16l-82.81 -94.79 31.44 -27.09 82.42 94.78c26.14,30.09 56.79,31.05 82.88,8.58 26.08,-22.3 25.51,-52.39 0.79,-81.29l-82.82 -94.78 31.22 -26.88 82.65 94.79c42.62,49.23 34.26,100.6 -7.34,136.84zm-113.13 89.2l-39.8 -21.68 -91.46 70.06 10.39 44.65 -35.68 27.27 -55.72 -235.02 35.85 -27.26 212.49 114.31 -36.07 27.67zm520.6 -1097.73c-67.91,120.87 -500.28,847.41 -1184.15,1166.43l367.22 320.03c329.97,-199.9 812.13,-566.79 1109.87,-1131.14l-292.94 -355.32z"/>
  <path class="fil1" d="M15250.13 5291.32l0 0c127.47,-16.32 297.95,-141.76 582.14,-375.75 273,-225.87 287.34,-941.41 217.85,-1246.14 -71.47,-313.48 -124.88,-645.82 -125.44,-649.21l25.69 -5.19c23.48,94.39 198.14,632.1 200.12,638.71 104.78,428.13 26.93,897.37 5.19,1010.67 42.4,-17.95 86.43,-27.49 132.84,-37.26 34.04,-7.34 68.93,-14.9 104.77,-26.08 77.63,-24.5 179.81,-63.11 280.8,-143.39 81.63,-64.69 183.81,-126.68 185,-127.64l69.49 -42.23 -52.78 61.93c-229.03,267.25 -413.41,333.19 -532.13,359.49 -108.73,24.28 -284.18,180.2 -634.08,491.31l-47.98 42.79c-300.95,267.31 -484.99,280.8 -462.24,185.05 11.92,-49.39 53.97,-74.12 53.35,-74.12l9.94 -17.72 -12.53 -45.22z"/>
  <path class="fil1" d="M16058.08 5257.56c-8.92,-22.47 -28.45,-57.75 -68.08,-73.28 -0.23,-0.17 -0.4,-0.17 -0.4,-0.17 -20.72,-8.58 -41.04,-7.96 -56.4,-5.19 6.78,-23.88 8.58,-54.76 -6.32,-81.24 35.85,-19.13 80.62,-17.55 114.71,8.13 46.41,35.46 54.14,102.97 17.73,150.17 -0.23,0.79 -1.02,1.18 -1.24,1.58z"/>
  <path class="fil1" d="M15915.14 5210.87l3.22 -1.63c0.17,0 30.48,-14.34 62.15,-1.59 41.78,16.32 57.13,47.2 58.94,73.28 -2.82,24.11 -12.37,49.23 -29.7,71.7 -41.04,53.96 -108.72,71.29 -150.95,39.23 -25.69,-19.48 -35.85,-53.18 -30.65,-88.41 8.12,-30.65 45.38,-73.1 86.99,-92.58z"/>
  <path class="fil1" d="M15756.9 5127.6c35.06,-45.78 95.41,-58.54 137.63,-30.65 31.84,29.86 14.74,78.24 8.75,91.79 -46.17,22.53 -83.83,80.45 -95.8,100.38 -14.5,-2.21 -28.45,-7.96 -40.42,-16.94 -41.83,-32.23 -46.4,-96.99 -10.16,-144.58z"/>
  <path class="fil1" d="M15828.94 3585.03c5.58,-14.11 17.72,-36.01 42.62,-46.17l0.22 0c13.33,-5.2 25.86,-4.97 35.46,-3.17 -4.18,-15.18 -5.42,-34.26 4.17,-50.8 -22.92,-12.14 -50.8,-11.35 -72.09,4.8 -28.9,22.29 -34.26,64.69 -11.34,94.38 0,0.57 0.56,0.79 0.96,0.96z"/>
  <path class="fil1" d="M15918.64 3555.79l-2.2 -1.01c-0.23,0 -19.31,-8.92 -38.67,-1.19l-0.4 0c-26.08,10.39 -35.85,29.86 -36.81,46.01 1.75,15.13 7.74,31.05 18.69,44.99 25.69,34.27 68.31,45.05 94.62,24.9 16.14,-12.31 22.69,-33.42 19.3,-55.33 -4.97,-19.36 -28.45,-46.01 -54.53,-58.37z"/>
  <path class="fil1" d="M16018.11 3503.57c-22.13,-28.68 -59.95,-36.69 -86.43,-19.14 -20.32,18.92 -9.2,48.78 -5.59,57.76 28.85,13.54 52.39,50.18 59.73,62.72 9.37,-1.19 17.95,-4.97 25.51,-10.56 26.48,-20.32 29.47,-61.14 6.78,-90.78z"/>
  <path class="fil1" d="M15975.37 2733.05c72.66,-48.38 95.97,-110.31 95.97,-110.31 0,0 -7.17,65.71 34.84,142.37 52.21,94.22 50.18,198.38 -37.43,262.11 0,0 -55.38,36.81 -102.18,25.3 -46.41,-11.18 -78.64,-69.5 -78.64,-69.5 -48.78,-96.81 -1.81,-190.19 87.44,-249.97z"/>
  <path class="fil1" d="M16302.69 3024.46c128.43,-29.87 194.14,-105.17 194.14,-105.17 0,0 -44.99,89.25 -25.86,219.48 23.71,160.5 -34.26,307.28 -191.37,350.29 0,0 -98.23,23.09 -158.13,-17.89 -59.78,-40.65 -74.68,-140 -74.68,-140 -17.56,-162.14 97.77,-269.9 255.9,-306.71z"/>
  <path class="fil1" d="M16467.75 3565.73c110.54,10.55 183.02,-31.45 183.02,-31.45 0,0 -59.78,59.17 -79.09,168.29 -23.71,134.81 -108.5,235.97 -246.13,228.63 0,0 -84.45,-8.58 -121.49,-57.18 -37.03,-48.55 -22.29,-132.22 -22.29,-132.22 29.24,-134.24 149.76,-189 285.98,-176.07z"/>
  <path class="fil1" d="M15736.58 3279.57c-7.17,-70.91 -42.45,-111.89 -42.45,-111.89 0,0 44.65,30.82 115.95,30.03 88.01,-1.18 162.7,39.86 174.61,127.47 0,0 5.42,53.97 -21.11,83.44 -26.09,29.47 -80.45,30.09 -80.45,30.09 -88.4,-2.2 -137.8,-71.7 -146.55,-159.14z"/>
  <path class="fil1" d="M15664.66 3849.29c-11.91,-120.64 -72.26,-189.74 -72.26,-189.74 0,0 75.65,51.94 196.96,50.36 149.32,-1.98 276.23,68.53 296.72,216.89 0,0 8.75,92.02 -35.45,141.58 -44.21,49.79 -136.85,51.2 -136.85,51.2 -150.33,-3.78 -234.16,-121.71 -249.12,-270.29z"/>
  <path class="fil1" d="M16430.89 4128.11c115.5,-50.58 165.13,-132.04 165.13,-132.04 0,0 -27.5,91.39 13.32,210.73 50.18,146.95 21.51,294.52 -119.29,362.04 0,0 -88.06,38.44 -151.74,10.33 -63.74,-28.23 -94.84,-119.06 -94.84,-119.06 -44.6,-150 44.82,-270.07 187.42,-332z"/>
  <path class="fil1" d="M16841.64 4103.72c51.54,-34.27 68.08,-78.3 68.08,-78.3 0,0 -5.19,46.63 24.73,100.83 36.64,66.67 35.45,140.56 -26.53,185.56 0,0 -39.24,26.13 -72.26,18.34 -33.08,-7.96 -55.95,-49.56 -55.95,-49.56 -34.09,-68.54 -1.41,-134.64 61.93,-176.87z"/>
  <path class="fil1" d="M17088.23 4474.22c48.38,72.09 110.53,95.35 110.53,95.35 0,0 -65.54,-7.17 -141.81,35.06 -93.37,52.38 -197.36,51.37 -261.26,-35.46 0,0 -37.03,-55.32 -26.08,-101.72 11.12,-46.63 68.87,-78.87 68.87,-78.87 96.42,-49 189.79,-3.22 249.75,85.64z"/>
  <path class="fil1" d="M16569.93 4869.5c50.81,95.97 124.65,132.84 124.65,132.84 0,0 -80.61,-17.73 -180.42,24.89 -123.24,52.95 -252.12,37.43 -319.81,-78.69 0,0 -39.06,-73.28 -18.91,-129.45 20.1,-56.57 95.97,-89.2 95.97,-89.2 126.06,-48.21 235.81,21.29 298.52,139.61z"/>
  <path class="fil1" d="M15782.36 4319.6c-25.46,-76.1 -74.46,-111.72 -74.46,-111.72 0,0 56.17,22.46 133.79,3.78 95.8,-23.94 187.65,2.54 223.11,95.18 0,0 19.3,57.92 -2.21,95.97 -20.94,38.67 -80.05,53.4 -80.05,53.4 -97.43,19.87 -168.9,-43.41 -200.18,-136.61z"/>
  <path class="fil1" d="M15577.89 4691.9c75.48,-64.35 93.99,-137.23 93.99,-137.23 0,0 0.4,74.91 58.15,155.75 71.13,99.75 83.27,217.68 -7.34,301.12 0,0 -57.58,49 -111.72,42.22 -54.19,-6.6 -98.17,-67.91 -98.17,-67.91 -67.74,-102.97 -28.11,-214.52 65.09,-293.95z"/>
  <path class="fil1" d="M15646.2 5525.31c58.93,87.39 133.4,115.51 133.4,115.51 0,0 -79.26,-8.58 -171.06,42.62 -113.13,63.11 -238.79,61.93 -316.24,-43.64 0,0 -44.83,-66.33 -31.45,-122.5 13.55,-56.12 83.61,-95.35 83.61,-95.35 116.35,-59.39 229.03,-3.78 301.74,103.36z"/>
  <path class="fil1" d="M11221.49 4330.15c1.19,0.79 103.53,62.89 184.83,127.64 101.33,80.45 203.51,118.67 280.96,143.39 35.85,11.12 70.74,18.75 104.78,25.91 46.01,9.94 90.38,19.48 133,37.43 -21.68,-113.35 -99.75,-582.93 5.19,-1011.91 1.98,-5.37 176.87,-543.08 199.73,-637.47l25.75 5.14c-0.85,3.22 -53.97,335.61 -125.27,649.04 -69.16,304.73 -55.21,1020.27 217.85,1246.3 284.01,234 485.55,382.58 613.41,399.13l3.17 0.39 90.43 113.3 10.33 37.65c-0.79,0 -13.15,-22.91 -45.78,-22.91 -98.62,0 -199.56,67.51 -500.9,-199.96l-48.38 -42.57c-349.33,-311.11 -524.79,-467.03 -633.69,-491.3 -118.72,-26.54 -303.15,-92.64 -531.78,-359.49l-52.73 -61.93 69.1 42.22z"/>
  <path class="fil1" d="M12214.83 5146.52c-27.66,-41.05 -83.04,-67.92 -123.46,-59.17 -15.13,3.39 -34.66,13.16 -39.23,42.46 -3.22,19.3 0,35.84 9.76,50.58 25.07,37.03 57.92,56.73 84.62,49.17 20.33,-10.33 83.05,-8.58 85.81,-40.03 -2.37,-15.13 -8.35,-29.3 -17.5,-43.01z"/>
  <path class="fil1" d="M12298.27 5297.02c7.79,8.35 31.9,29.07 49.79,24.89 6.15,-1.8 21.11,-7 28.68,-23.93 8.35,-20.1 4.18,-48.38 -13.72,-82.42 -2.82,-5.2 -5.59,-9.99 -8.41,-14.17 -14.74,-21.68 -32.07,-33.25 -50.36,-33.25 -17.72,0 -36.86,11.34 -50.18,29.69 2.59,13.16 12.53,55.16 32.63,84.85 3.61,5.36 7.39,10.16 11.57,14.34z"/>
  <path class="fil1" d="M12252.94 5492.06c5.59,7.96 13.15,14.17 23.09,18.12 35.68,14.17 56.96,17.56 70.73,10.96 12.14,-5.2 21.28,-19.31 30.49,-46.01 6.55,-19.7 -3.39,-50.36 -29.3,-89.03 -15.53,-22.86 -33.25,-43.41 -44.2,-55.32 -7.57,16.48 -23.09,43.18 -47.43,60.29 -4.96,12.59 -25.06,68.53 -3.38,100.99z"/>
  <path class="fil1" d="M12158.1 5339.64c22.07,33.65 64.52,44.2 94.61,24.05 29.87,-19.48 36.02,-62.49 13.49,-95.74 -22.29,-33.31 -64.3,-44.04 -94.38,-23.94 -29.87,19.31 -35.85,62.32 -13.72,95.63z"/>
  <path class="fil1" d="M12141.78 5350.71c-21.73,-31.05 -21.9,-69.89 -4.57,-98.18 -38.67,8.75 -95.41,29.47 -97.78,81.24 -0.79,7.96 1.19,14.96 5.37,21.34 19.92,29.64 88.4,33.42 140.17,31.27 -16.71,-7.17 -32.24,-19.36 -43.19,-35.67z"/>
  <path class="fil1" d="M12148.22 5275.06c-6.78,20.32 -3.95,44.6 9.99,64.52 14.51,22.3 38.44,34.44 61.53,34.05 -19.75,-12.14 -45.84,-30.49 -60.97,-52.79 -10.33,-15.52 -13.71,-30.88 -10.55,-45.78z"/>
  <path class="fil1" d="M11868.44 3651.93c12.14,-41.21 -0.79,-92.58 -28.68,-114.49 -10.73,-8.41 -27.66,-15.58 -49.79,-2.42 -14.51,8.35 -23.49,19.76 -27.89,34.09 -10.95,37.43 -5.76,70.06 13.95,83.61 17.95,7.57 51.2,50.41 73.89,34.49 8.36,-9.99 14.74,-21.73 18.52,-35.28z"/>
  <path class="fil1" d="M11815.03 3790.41c-1.41,9.93 -1.97,37.43 11.13,46.97 4.4,2.99 16.14,9.76 31.5,5.36 18.12,-4.97 34.43,-23.88 46.8,-54.76 1.8,-4.35 3.38,-8.75 4.96,-13.15 6.16,-21.68 4.01,-39.8 -5.98,-51.94 -9.94,-11.57 -27.66,-18.12 -47.36,-16.77 -7.17,8.98 -29.3,38.84 -37.88,68.71 -1.75,5.59 -3,10.55 -3.17,15.58z"/>
  <path class="fil1" d="M11661.14 3868.6c-2.37,8.18 -2.2,16.37 0.79,25.51 10.17,31.45 19.71,46.97 31.5,52.96 10.11,4.57 24.45,3.21 47.2,-5.76 16.48,-6.16 31.44,-30.26 42.79,-68.54 6.55,-23.09 10.56,-45.95 12.14,-59.89 -15.13,3.95 -41.21,8.35 -65.88,2.14 -10.95,3.39 -59.17,21.12 -68.54,53.58z"/>
  <path class="fil1" d="M11709.64 3721.59c-9.71,33.03 6.38,66.73 35.84,76.04 29.7,8.42 61.37,-11.34 71.13,-44.37 9.55,-33.25 -6.37,-67.35 -36.24,-76.26 -29.3,-8.42 -61.36,11.34 -70.73,44.59z"/>
  <path class="fil1" d="M11693.32 3716.46c8.98,-31.28 33.82,-52.79 62.33,-57.36 -26.88,-20.89 -71.93,-46.57 -107.55,-19.7 -5.59,3.95 -9.37,9.37 -11.17,15.13 -8.53,30.09 26.7,77.28 56.56,110.53 -4.57,-15.13 -4.97,-31.89 -0.17,-48.6z"/>
  <path class="fil1" d="M11746.78 3679.08c-17.1,6.78 -31.27,21.91 -37.03,42.23 -6.61,22.3 -1.58,44.6 11.35,59.56 -3,-19.53 -5.2,-47.2 1.41,-69.33 4.34,-15.75 12.7,-26.47 24.27,-32.46z"/>
  <path class="fil1" d="M11925.79 2883.1c-9.14,-20.49 13.55,-11.74 9.6,-36.64 -1.18,-8.58 -1.97,-17.1 -2.6,-26.08 -1.01,-18.35 -21.11,-29.86 -18.12,-50.81 0.79,-5.53 22.53,-19.3 23.88,-24.89 4.01,-21.91 -6.55,-58.32 3.22,-82.42 4.35,-11.18 26.08,-9.6 31.67,-21.12 6.94,-13.77 22.47,-30.48 31.22,-45.38 14.79,9.31 28.28,18.29 41.04,27.04 10.39,7.79 28.9,-4.18 37.82,3.61 19.93,16.71 27.89,53.35 42.06,70.68 3.78,4.57 29.86,6.38 32.86,10.78 12.53,16.94 0.39,36.64 7.96,53.57 4.17,7.96 7.56,15.92 10.33,24.11 8.41,23.65 23.93,5.14 25.91,27.66 0.79,8.58 -9.77,58.15 -9.77,66.33 -0.39,27.89 22.3,21.68 16.15,45.56 -2.6,8.81 -31.67,49.62 -34.44,57.36 -8.81,25.34 12.7,33.47 3.56,50.18 -12.76,23.15 -54.76,50.02 -54.76,50.02 0,0 -49.57,-3.61 -71.7,-17.95 -15.92,-10.11 -1.18,-27.83 -20.49,-45.78 -6.38,-5.99 -51.6,-27.67 -57.75,-34.27 -16.94,-17.9 5.93,-23.71 -7.4,-47.76 -3.95,-7.4 -37.03,-45.84 -40.25,-53.8z"/>
  <path class="fil1" d="M11558.46 3328.51c-28.46,-22.13 9.37,-27.32 -14.74,-59.16 -7.96,-11.18 -15.92,-22.69 -23.26,-34.66 -15.97,-25.46 -52.78,-26.31 -64.75,-57.98 -3.16,-8.13 16.94,-44.6 14.17,-53.35 -10.78,-34.26 -53.18,-77.28 -58.6,-118.72 -2.54,-18.91 29.92,-33.25 29.08,-53.97 -1.58,-25.06 8.01,-60.29 8.8,-87.78 27.5,1.19 53.75,3.78 78.64,6.94 20.33,2.6 37.43,-28.45 55.78,-24.67 41.04,8.75 80.84,54.37 113.69,67.69 8.81,3.61 46.63,-13.55 54.99,-9.77 30.26,13.95 28.28,51.21 52.16,68.54 11.57,8.97 22.53,17.72 32.69,26.7 30.26,26.48 38.05,-11.35 57.92,19.08 7.56,10.95 30.31,89.25 36.69,100.6 21.06,39.4 48.78,13.94 58.15,52.16 3.39,14.17 -6.78,93.83 -4.41,107.55 7.17,41.83 43.81,37.25 43.64,67.29 -0.22,42.84 -39.23,112.34 -39.23,112.34 0,0 -72.32,33.47 -114.71,30.26 -30.32,-1.98 -23.15,-38.45 -63.96,-48.78 -13.55,-3.39 -93.77,1.02 -107.72,-4.01 -37.48,-12.53 -9.76,-37.82 -47.19,-61.7 -10.95,-7.17 -87.28,-36.24 -97.83,-44.6z"/>
  <path class="fil1" d="M12245.43 3095.93c19.31,-15.36 16.15,10.72 41.61,0 8.75,-3.22 17.55,-7.17 26.87,-9.77 19.76,-6.21 26.3,-30.88 49,-33.64 6.21,-0.85 26.87,18.68 33.47,18.12 24.5,-1.81 59.73,-22.75 88.24,-19.76 12.93,2.03 17.1,25.68 30.82,28.11 16.77,3.56 38.84,15.3 56.96,20.49 -5.36,18.35 -11.34,35.23 -17.5,51.38 -4.96,13.38 12.76,29.46 7.17,41.04 -12.53,26.3 -49.17,45.22 -63.73,65.14 -3.56,4.97 1.41,32.86 -2.6,37.6 -14.11,18.52 -38.22,10.39 -54.14,23.94 -7.56,6.38 -14.96,12.13 -22.92,17.33 -22.52,15.69 1.19,27.26 -22.13,35.39 -8.75,3 -64.69,5.59 -73.27,8.02 -29.64,7.73 -17.11,29.86 -43.98,29.86 -9.99,0 -61.59,-19.7 -70.73,-20.32 -28.68,-2.37 -31.84,22.92 -52,18.12 -28.45,-7.17 -68.08,-44.6 -68.08,-44.6 0,0 -10.16,-53.96 -1.02,-81.68 6.38,-19.87 29.08,-8.92 42.85,-34.61 4.35,-8.41 14.91,-62.38 20.33,-70.9 14.73,-22.92 26.87,-0.23 48.94,-21.12 6.6,-6.21 38.27,-52.22 45.84,-58.14z"/>
  <path class="fil1" d="M12122.31 3619.3c23.14,-24.27 23.93,11.35 55.77,-7.73 10.95,-6.38 22.53,-12.59 34.27,-18.52 25.06,-11.8 29.47,-45.84 59.73,-53.57 7.96,-2.21 39.23,20.09 47.81,18.29 32.63,-6.38 76.49,-41.44 115.11,-42 17.5,-0.4 27.66,30.88 46.8,32.23 23.31,1.02 54.36,13.38 79.88,16.77 -4.24,25.46 -8.81,49.17 -14.57,71.86 -4.01,18.35 22.53,36.87 17.11,53.97 -11.74,36.86 -57.92,69.1 -73.45,98.4 -4.17,7.34 7.96,44.2 3.79,51.2 -16.38,26.87 -50.19,21.28 -68.71,41.78 -8.97,9.59 -18.34,18.74 -27.72,27.49 -27.49,25.12 6.61,36.07 -23.09,51.37 -11.17,5.98 -85.63,19.14 -96.59,23.71 -38.44,15.52 -17.72,43.64 -53.96,48.61 -13.33,1.8 -85.64,-15.53 -98.4,-14.96 -39.41,2.59 -38.62,36.46 -66.67,33.47 -38.84,-4.18 -99.42,-46.8 -99.42,-46.8 0,0 -23.08,-70.51 -16.14,-109.35 5.19,-27.26 37.88,-17.1 51.6,-54.13 4.4,-11.75 8.35,-86.66 14.34,-99.02 15.35,-33.42 35.84,-5.37 61.76,-37.43 7.33,-9.37 42,-76.66 50.75,-85.64z"/>
  <path class="fil1" d="M12119.54 4191.96c15.92,-16.37 16.15,7.96 38.22,-4.8 7.79,-4.4 15.52,-9.15 23.71,-13.15 17.1,-8.13 20.32,-31.67 41.04,-37.04 5.59,-1.41 27.1,14.12 32.86,12.76 22.46,-4.18 52.78,-28.51 79.25,-28.9 12.37,-0.4 19.31,21.11 32.24,21.9 16.14,0.79 37.65,9.2 54.98,11.74 -2.59,17.16 -5.98,33.87 -9.76,49.62 -3.16,12.76 15.35,25.46 11.97,37.04 -8.58,25.51 -40.42,47.59 -50.81,67.68 -3.16,5.03 5.42,30.49 2.43,35.46 -11.18,18.57 -34.27,14.34 -47.2,28.28 -6.38,7.17 -12.59,13.38 -18.97,19.53 -19.08,16.94 4.18,24.5 -16.09,35.06 -7.79,4.18 -58.99,13.32 -66.55,16.31 -26.25,10.96 -11.75,29.87 -36.64,33.25 -9.77,1.64 -59.56,-10.55 -67.69,-10.16 -27.26,1.64 -27.26,25.35 -46.4,23.32 -26.87,-2.99 -68.31,-32.63 -68.31,-32.63 0,0 -15.92,-48.21 -11.18,-75.31 3.39,-18.69 25.91,-11.74 35.29,-37.03 3.16,-8.19 5.98,-59.33 10.16,-68.08 10.33,-23.15 24.67,-3.84 42.39,-25.92 5.37,-6.38 29.08,-52.78 35.06,-58.93z"/>
  <path class="fil1" d="M12260.39 4844.04c-9.15,-26.87 18.12,-13.49 16.14,-44.6 -0.56,-11.12 -0.79,-21.9 -0.16,-33.02 0.39,-23.71 -23.32,-39.86 -17.56,-65.77 1.58,-6.94 30.71,-21.68 32.68,-28.68 7.96,-27.04 -1.18,-73.27 13.16,-102.74 6.55,-13.32 34.43,-8.58 42.62,-22.52 9.94,-16.88 31.22,-35.63 43.81,-53.13 17.72,12.71 33.64,25.69 48.77,38.62 11.97,10.55 36.87,-2.37 47.2,7.96 23.09,23.71 29.07,70.68 45.22,93.82 3.95,5.93 36.41,10.95 39.8,16.88 14.16,22.75 -3.39,45.61 4.62,67.52 4.18,10.56 7.34,21.11 10.11,31.5 8.02,30.48 29.92,9.37 29.52,37.43 0,10.95 -18.74,71.92 -20.15,82.02 -2.6,34.27 26.08,29.92 15.75,59 -3.61,10.95 -45.22,58.14 -49.4,68.08 -13.71,30.48 12.37,43.24 -1.01,62.72 -18.52,27.88 -74.46,56.39 -74.46,56.39 0,0 -61.76,-9.99 -88.01,-30.26 -18.91,-14.96 1.35,-34.88 -21.12,-59.38 -7.17,-8.36 -61.53,-40.42 -68.53,-49.57 -19.08,-24.5 9.99,-28.9 -4.18,-60.97 -4.34,-9.31 -41.43,-61.14 -44.82,-71.3z"/>
  <path class="fil1" d="M11432.74 4329.08c-11.75,-28.85 18.68,-15.92 14.73,-49.96 -1.41,-11.57 -2.2,-23.71 -2.6,-36.07 -0.62,-25.46 -27.66,-42 -22.69,-70.29 1.18,-7.56 32.06,-25.68 33.25,-33.47 6.94,-29.64 -5.98,-80.22 7.96,-113.08 6.38,-14.96 36.64,-11.8 44.6,-27.32 9.76,-19.31 32.06,-41.21 44.6,-60.91 19.75,12.7 38.27,25.46 54.98,38.84 13.94,10.95 39.86,-5.03 52.16,5.75 26.7,23.88 36.08,75.09 54.76,99.59 4.8,5.98 40.48,9.76 44.83,15.92 16.14,23.48 -1.36,50.01 8.97,73.27 4.97,11.57 9.15,22.7 12.53,33.65 11.18,32.68 33.08,8.58 34.89,39.23 0.79,11.41 -16.37,79.26 -16.54,90.67 -1.02,37.99 30.03,30.82 20.49,63.28 -3.55,11.97 -45.38,66.56 -49.56,77.51 -12.76,34.21 16.31,46.57 3.16,68.87 -18.52,31.11 -77.45,66.16 -77.45,66.16 0,0 -67.92,-6.77 -97.61,-27.32 -21.51,-14.73 -0.57,-38.22 -26.65,-63.73 -8.18,-8.36 -69.32,-39.63 -77.68,-48.95 -22.13,-25.91 8.92,-32.69 -8.18,-66.73 -4.97,-9.99 -49,-64.35 -52.95,-74.91z"/>
  <path class="fil1" d="M12674.24 5702.69c-23.08,7.96 -11.74,-15.75 -39.06,-13.72 -9.15,0.56 -18.69,0.96 -28.45,0.56 -20.5,-0.39 -34.27,20.72 -56.74,15.76 -5.81,-1.42 -18.97,-26.48 -25.12,-28.12 -23.48,-6.32 -63.73,2.03 -89.03,-10.5 -11.74,-5.59 -7.96,-29.52 -19.92,-36.69 -14.91,-8.53 -31.45,-26.87 -46.8,-37.83 11.18,-15.13 21.9,-29.07 33.25,-42.22 8.97,-10.33 -2.37,-31.84 6.6,-41.21 20.1,-20.33 60.52,-25.92 80.67,-40.25 5.14,-3.17 9.32,-31.45 14.51,-34.44 19.14,-12.36 39.63,2.6 58.54,-4.8 9.21,-3.39 18.13,-6.55 27.1,-8.75 26.31,-7.56 7.79,-26.08 32.07,-26.08 9.37,-0.17 62.55,15.75 71.07,16.54 30.09,2.37 25.91,-22.92 51.2,-14.17 9.37,3.39 50.58,38.84 59.56,42.62 26.31,11.35 37.26,-11.12 54.59,0 24.05,15.98 49.34,63.96 49.34,63.96 0,0 -8.13,53.97 -25.46,77.06 -12.76,16.32 -30.26,-1.18 -51.37,18.35 -7,6.55 -34.49,53.97 -42.23,60.29 -20.94,16.77 -25.29,-8.52 -52.78,4.01 -7.96,3.61 -52.95,36.47 -61.54,39.63z"/>
  <path class="fil1" d="M11102.94 4213.41c-7.17,-16.09 10.56,-9.32 7.79,-29.07 -1.02,-6.78 -1.64,-13.55 -2.43,-20.5 -0.56,-14.96 -16.54,-23.88 -14.34,-40.02 0.62,-4.8 17.96,-15.75 19.14,-20.1 3.16,-17.33 -4.97,-46.23 2.6,-65.15 3.55,-8.97 20.89,-7.16 25.29,-16.54 5.19,-11.12 17.5,-24.5 24.27,-36.01 11.97,6.77 22.53,14.34 32.69,21.51 8.13,5.92 22.86,-3.62 30.03,2.54 15.75,13.15 21.74,42.22 33.08,56.17 3,3.21 23.49,4.8 26.08,8.58 10,13.15 0,28.9 6.61,42.22 3.16,6.38 5.53,12.76 7.96,19.31 6.77,18.52 19.08,3.78 20.49,21.74 0.62,6.77 -7.73,46 -7.96,52.16 -0.22,21.9 17.73,17.5 12.93,36.86 -1.75,6.32 -25.07,38.39 -27.27,45.16 -6.77,19.54 10.16,26.31 3.16,39.24 -10.33,18.51 -43.58,39.46 -43.58,39.46 0,0 -39.23,-2.43 -56.96,-13.95 -12.36,-8.18 -1.01,-21.9 -16.14,-35.84 -5.2,-5.2 -40.82,-22.3 -45.62,-27.5 -13.32,-14.11 4.41,-18.51 -5.76,-38.04 -3.38,-5.76 -29.46,-36.25 -32.06,-42.23z"/>
  <path class="fil1" d="M11077.08 4577.13c-22.69,4.41 -8.75,-15.92 -34.66,-18.12 -8.75,-0.56 -17.72,-1.97 -26.87,-3.55 -18.91,-3.22 -35.45,14.34 -55.61,6.32 -5.13,-1.98 -14.33,-27.04 -19.7,-29.47 -20.88,-9.31 -60.12,-7.56 -82.42,-22.47 -10.16,-7.17 -3.39,-28.51 -13.55,-36.86 -12.53,-9.94 -25.51,-29.24 -38.44,-41.61 12.53,-12.53 24.89,-24.1 37.03,-34.66 10.16,-8.75 2.37,-30.09 12.53,-37.43 21.51,-15.52 60.58,-15.35 81.3,-25.51 5.36,-2.37 13.32,-27.89 18.51,-30.26 20.1,-8.58 36.81,8.35 55.78,4.4 9.31,-1.81 18.12,-3.61 26.87,-4.63 25.46,-2.93 10.95,-22.86 34.04,-19.47 8.58,1.35 56.34,23.71 64.13,25.68 28.28,6.55 27.66,-17.33 50.19,-5.59 8.35,4.18 42.39,43.25 49.79,47.82 23.31,14.11 36.86,-5.2 51.37,8.13 20.32,17.72 37.43,66.16 37.43,66.16 0,0 -15.13,48.94 -34.83,67.91 -14.17,13.33 -28.51,-5.59 -51.21,9.71 -7.33,5.2 -39.79,44.83 -47.98,49.79 -21.9,12.59 -22.69,-11.12 -50.19,-3.95 -8.18,2.2 -55.15,26.25 -63.51,27.66z"/>
  <path class="fil1" d="M11759.32 5055.29c-25.35,8.97 -12.76,-16.94 -42.63,-14.74 -10.16,0.63 -20.55,1.02 -31.5,1.02 -21.9,-0.62 -37.43,22.3 -61.7,16.94 -6.61,-1.19 -21.11,-28.29 -27.89,-30.26 -25.29,-6.61 -69.55,2.37 -97.38,-10.95 -12.98,-5.99 -8.81,-32.07 -22.13,-39.46 -16.14,-9.38 -34.04,-29.3 -50.98,-40.42 12.37,-16.94 24.28,-32.07 36.42,-46.24 9.99,-11.91 -2.77,-34.83 7.62,-44.6 21.68,-22.07 66.1,-28.45 88.18,-43.58 5.59,-4.01 10.38,-34.27 15.75,-38.05 21.51,-13.38 43.41,3.16 64.35,-4.97 9.71,-3.61 19.88,-7.39 29.87,-9.76 28.45,-7.96 8.35,-28.28 35.05,-28.51 10.11,-0.17 68.09,16.77 77.85,17.33 33.08,2.82 28.29,-24.5 55.78,-14.9 10.55,3.16 55.72,41.21 65.09,45.55 29.07,12.2 41.26,-12.3 59.95,0 26.48,16.77 53.97,68.93 53.97,68.93 0,0 -8.75,58.15 -28.06,83.44 -13.55,18.12 -33.08,-1.19 -56.17,20.32 -7.56,6.55 -37.82,58.38 -46.23,65.15 -23.49,18.29 -27.66,-8.98 -57.75,4.74 -8.92,4.01 -58.32,39.86 -67.46,43.02z"/>
  <path class="fil1" d="M17931.91 108.39l-68.47 0 -7756.61 0 -68.7 0 0 68.71 0 7790.87 0 68.7 68.7 0 7756.61 0 68.47 0 0 -68.7 0 -7790.87 0 -68.71zm-68.47 7859.58l-7756.44 0 0 -7790.87 7756.44 0 0 7790.87z"/>
  <path class="fil2" d="M20320.77 2186.63c-68.88,70.35 -152.42,126.04 -250.61,167.08 -98.19,41.03 -202.98,61.55 -314.36,61.55 -126.04,0 -236.69,-22.72 -331.95,-68.15 -95.26,-45.43 -169.64,-112.11 -223.13,-200.05 -53.49,-87.93 -80.24,-194.18 -80.24,-318.76l0 -459.45c0,-186.12 57.53,-329.75 172.57,-430.87 115.05,-101.12 268.56,-151.68 460.55,-151.68 93.8,0 187.23,12.45 280.29,37.37 93.06,24.91 175.5,60.09 247.31,105.52 13.19,8.79 19.79,19.05 19.79,30.77 0,4.4 -2.93,12.46 -8.8,24.19l-147.29 211.04c-7.32,11.72 -16.85,17.58 -28.57,17.58 -8.8,0 -16.86,-2.93 -24.18,-8.79 -95.27,-55.69 -208.85,-83.54 -340.75,-83.54 -85,0 -151.68,22.35 -200.04,67.05 -48.37,44.7 -72.55,108.82 -72.55,192.35l0 437.47c0,86.47 24.55,151.69 73.65,195.65 49.09,43.97 116.87,65.95 203.34,65.95 46.9,0 91.6,-5.49 134.1,-16.48 42.5,-11 79.14,-26.02 109.92,-45.07l0 -252.81 -235.23 0c-24.91,0 -37.37,-13.19 -37.37,-39.57l0 -215.43c0,-24.92 12.46,-37.38 37.37,-37.38l534.2 0c24.91,0 37.37,12.46 37.37,37.38l0 633.12c0,19.05 -5.13,33.7 -15.39,43.96z"/>
  <path id="1" class="fil2" d="M21578.22 1949.21c0,145.09 -46.53,259.04 -139.59,341.84 -93.07,82.81 -220.2,124.21 -381.41,124.21 -161.22,0 -288.72,-41.4 -382.51,-124.21 -93.8,-82.8 -140.7,-196.75 -140.7,-341.84l0 -263.8c0,-146.55 46.9,-261.96 140.7,-346.23 93.79,-84.27 221.29,-126.41 382.51,-126.41 161.21,0 288.34,42.14 381.41,126.41 93.06,84.27 139.59,199.68 139.59,346.23l0 263.8zm-701.27 0c0,54.23 15.39,96 46.17,125.31 30.77,29.31 75.47,43.96 134.1,43.96 58.62,0 103.32,-14.65 134.09,-43.96 30.78,-29.31 46.17,-71.08 46.17,-125.31l0 -263.8c0,-55.69 -15.39,-98.56 -46.17,-128.6 -30.77,-30.04 -75.47,-45.07 -134.09,-45.07 -58.63,0 -103.33,15.03 -134.1,45.07 -30.78,30.04 -46.17,72.91 -46.17,128.6l0 263.8z"/>
  <path id="2" class="fil2" d="M22068.44 2386.68c-20.51,0 -34.44,-10.26 -41.76,-30.78l-369.32 -1068.38c-2.93,-8.8 -4.4,-14.66 -4.4,-17.59 0,-7.33 3.3,-13.56 9.89,-18.69 6.6,-5.13 15.02,-7.69 25.28,-7.69l276.99 0c23.45,0 37.37,10.26 41.77,30.78l134.1 481.43c20.52,64.48 46.9,160.48 79.14,287.98l6.59 0c20.52,-83.54 46.9,-179.53 79.14,-287.98l136.3 -481.43c7.33,-20.52 21.98,-30.78 43.97,-30.78l276.99 0c14.65,0 24.54,4.03 29.67,12.09 5.13,8.06 5.5,18.69 1.1,31.88l-373.71 1068.38c-8.8,20.52 -23.45,30.78 -43.97,30.78l-307.77 0z"/>
  <path id="3" class="fil2" d="M23875.47 1892.06c0,24.91 -13.19,37.37 -39.57,37.37l-622.12 0 0 35.17c0,55.69 16.85,97.83 50.56,126.4 33.71,28.58 79.87,42.87 138.49,42.87 95.26,0 188.33,-26.38 279.19,-79.14 7.33,-5.86 14.66,-8.79 21.98,-8.79 10.26,0 19.79,5.86 28.58,17.59l114.32 151.68c5.86,7.33 8.79,16.12 8.79,26.38 0,10.26 -5.13,19.79 -15.39,28.58 -126.04,96.73 -275.52,145.09 -448.46,145.09 -98.19,0 -186.12,-17.22 -263.8,-51.66 -77.67,-34.44 -139.23,-86.1 -184.66,-154.98 -45.43,-68.89 -68.15,-152.42 -68.15,-250.61l0 -276.99c0,-155.35 47.63,-272.23 142.89,-350.64 95.27,-78.4 217.64,-117.61 367.13,-117.61 145.09,0 263.06,38.84 353.93,116.51 90.86,77.68 136.29,194.92 136.29,351.74l0 211.04zm-323.15 -226.43c0,-57.16 -15.39,-100.39 -46.17,-129.7 -30.77,-29.31 -71.81,-43.97 -123.1,-43.97 -52.76,0 -94.16,14.29 -124.21,42.87 -30.04,28.58 -45.06,72.18 -45.06,130.8l0 46.16 338.54 0 0 -46.16z"/>
  <path id="4" class="fil2" d="M24110.69 2386.68c-26.38,0 -39.57,-13.19 -39.57,-39.57l0 -998.04c0,-20.52 9.53,-35.91 28.58,-46.17 123.1,-60.08 257.94,-90.13 404.49,-90.13 54.23,0 125.31,7.33 213.24,21.99 23.45,4.39 35.17,18.31 35.17,41.76l0 202.25c0,13.19 -3.66,22.72 -10.99,28.58 -7.33,5.86 -17.59,8.06 -30.78,6.59 -39.57,-5.86 -85,-8.79 -136.29,-8.79 -65.95,0 -121.64,9.53 -167.08,28.58l0 813.38c0,26.38 -12.45,39.57 -37.37,39.57l-259.4 0z"/>
  <path id="5" class="fil2" d="M24941.66 2388.88c-26.38,0 -39.57,-13.19 -39.57,-39.57l0 -1000.24c0,-21.99 9.53,-37.37 28.58,-46.17 67.41,-27.84 141.79,-49.83 223.13,-65.95 81.34,-16.12 160.84,-24.18 238.52,-24.18 167.07,0 296.04,43.97 386.9,131.9 90.87,87.93 136.3,213.97 136.3,378.11l0 626.53c0,26.38 -13.19,39.57 -39.57,39.57l-259.4 0c-26.38,0 -39.57,-13.19 -39.57,-39.57l0 -626.53c0,-76.2 -15.39,-130.43 -46.17,-162.67 -30.77,-32.24 -76.94,-48.37 -138.49,-48.37 -60.09,0 -111.38,6.6 -153.89,19.79l0 817.78c0,26.38 -12.45,39.57 -37.37,39.57l-259.4 0z"/>
  <path id="6" class="fil2" d="M27157.58 1949.21c0,145.09 -46.53,259.04 -139.59,341.84 -93.07,82.81 -220.2,124.21 -381.41,124.21 -161.22,0 -288.72,-41.4 -382.51,-124.21 -93.8,-82.8 -140.7,-196.75 -140.7,-341.84l0 -263.8c0,-146.55 46.9,-261.96 140.7,-346.23 93.79,-84.27 221.29,-126.41 382.51,-126.41 161.21,0 288.34,42.14 381.41,126.41 93.06,84.27 139.59,199.68 139.59,346.23l0 263.8zm-701.27 0c0,54.23 15.39,96 46.17,125.31 30.77,29.31 75.47,43.96 134.1,43.96 58.62,0 103.32,-14.65 134.09,-43.96 30.78,-29.31 46.17,-71.08 46.17,-125.31l0 -263.8c0,-55.69 -15.39,-98.56 -46.17,-128.6 -30.77,-30.04 -75.47,-45.07 -134.09,-45.07 -58.63,0 -103.33,15.03 -134.1,45.07 -30.78,30.04 -46.17,72.91 -46.17,128.6l0 263.8z"/>
  <path id="7" class="fil2" d="M28463.39 854.44c0,-26.38 12.46,-39.57 37.37,-39.57l259.4 0c26.38,0 39.57,13.19 39.57,39.57l0 1435.51c0,21.99 -10.26,37.38 -30.77,46.17 -67.42,24.91 -142.89,44.33 -226.43,58.25 -83.54,13.93 -162.68,20.89 -237.42,20.89 -102.59,0 -193.09,-19.79 -271.49,-59.36 -78.41,-39.57 -139.6,-97.09 -183.57,-172.57 -43.96,-75.47 -65.95,-164.5 -65.95,-267.09l0 -217.64c0,-98.19 19.79,-183.92 59.36,-257.2 39.57,-73.28 95.26,-129.7 167.07,-169.27 71.81,-39.57 154.62,-59.36 248.41,-59.36 67.42,0 135.57,12.46 204.45,37.37l0 -395.7zm-336.35 1068.39c0,67.42 15.39,116.88 46.17,148.39 30.78,31.51 76.94,47.26 138.49,47.26 57.16,0 107.72,-8.06 151.69,-24.18l0 -551.78c-46.9,-24.91 -98.19,-37.37 -153.88,-37.37 -121.65,0 -182.47,63.02 -182.47,189.06l0 228.62z"/>
  <path id="8" class="fil2" d="M30008.81 1892.06c0,24.91 -13.19,37.37 -39.57,37.37l-622.12 0 0 35.17c0,55.69 16.85,97.83 50.56,126.4 33.71,28.58 79.87,42.87 138.49,42.87 95.26,0 188.33,-26.38 279.19,-79.14 7.33,-5.86 14.66,-8.79 21.98,-8.79 10.26,0 19.79,5.86 28.58,17.59l114.32 151.68c5.86,7.33 8.79,16.12 8.79,26.38 0,10.26 -5.13,19.79 -15.39,28.58 -126.04,96.73 -275.52,145.09 -448.46,145.09 -98.19,0 -186.12,-17.22 -263.8,-51.66 -77.67,-34.44 -139.23,-86.1 -184.66,-154.98 -45.43,-68.89 -68.15,-152.42 -68.15,-250.61l0 -276.99c0,-155.35 47.63,-272.23 142.89,-350.64 95.27,-78.4 217.64,-117.61 367.13,-117.61 145.09,0 263.06,38.84 353.93,116.51 90.86,77.68 136.29,194.92 136.29,351.74l0 211.04zm-323.15 -226.43c0,-57.16 -15.39,-100.39 -46.17,-129.7 -30.77,-29.31 -71.81,-43.97 -123.1,-43.97 -52.76,0 -94.16,14.29 -124.21,42.87 -30.04,28.58 -45.06,72.18 -45.06,130.8l0 46.16 338.54 0 0 -46.16z"/>
  <path class="fil2" d="M19268.36 4916.93c-34.2,0 -51.3,-17.1 -51.3,-51.3l0 -1935.07c0,-34.2 17.1,-51.3 51.3,-51.3l404.68 0c26.6,0 45.6,12.35 57,37.05l256.49 495.88c66.5,129.19 152,316.34 256.49,561.43l11.4 0c30.4,-74.1 70.3,-166.25 119.7,-276.44 49.4,-110.2 94.04,-205.19 133.94,-284.99l259.34 -495.88c11.4,-24.7 30.4,-37.05 57,-37.05l404.68 0c32.3,0 48.45,17.1 48.45,51.3l0 1935.07c0,34.2 -16.15,51.3 -48.45,51.3l-353.38 0c-34.2,0 -51.3,-17.1 -51.3,-51.3l0 -376.18c0,-275.49 9.5,-579.48 28.5,-911.97l-11.4 -2.85c-70.3,171 -156.74,361.94 -259.34,572.83l-139.65 282.14c-11.4,24.7 -30.39,37.05 -56.99,37.05l-273.59 0c-28.5,0 -47.5,-12.35 -57,-37.05l-142.49 -282.14c-102.6,-210.89 -189.05,-401.83 -259.34,-572.83l-11.4 2.85c18.99,332.49 28.49,636.48 28.49,911.97l0 376.18c0,34.2 -17.09,51.3 -51.29,51.3l-350.54 0z"/>
  <path id="1" class="fil2" d="M21514.06 3551.83c72.2,-45.6 159.12,-83.12 260.77,-112.57 101.65,-29.45 210.42,-44.17 326.31,-44.17 201.39,0 355.76,53.2 463.11,159.59 107.34,106.4 161.02,265.99 161.02,478.78l0 780.87c0,28.5 -14.25,47.5 -42.75,57 -83.6,24.7 -178.12,44.65 -283.57,59.85 -105.44,15.2 -206.61,22.8 -303.51,22.8 -210.89,0 -375.23,-40.85 -493.03,-122.55 -117.79,-81.69 -176.69,-204.24 -176.69,-367.63 0,-146.3 54.15,-256.97 162.44,-332.01 108.3,-75.05 261.24,-112.58 458.83,-112.58 66.5,0 147.25,5.7 242.24,17.1l0 -28.49c0,-79.8 -17.57,-138.7 -52.72,-176.7 -35.15,-38 -97.37,-57 -186.67,-57 -62.69,0 -127.29,7.6 -193.79,22.8 -66.5,15.2 -120.64,34.2 -162.44,57 -9.5,5.7 -19,8.55 -28.5,8.55 -17.1,0 -30.4,-8.55 -39.9,-25.65l-116.85 -222.29c-7.6,-19 -11.4,-30.4 -11.4,-34.2 0,-11.4 5.7,-20.9 17.1,-28.5zm353.39 900.57c0,49.4 20.42,86.44 61.27,111.14 40.85,24.7 96.42,37.05 166.72,37.05 60.8,0 125.4,-7.6 193.79,-22.8l0 -250.79c-56.99,-11.4 -122.54,-17.1 -196.64,-17.1 -150.09,0 -225.14,47.5 -225.14,142.5z"/>
  <path id="2" class="fil2" d="M23340.84 4352.65c0,140.6 63.64,210.89 190.94,210.89 19,0 49.4,-1.9 91.2,-5.7l14.25 0c26.59,0 39.89,14.25 39.89,42.75l0 279.29c0,32.3 -13.3,51.3 -39.89,57 -53.2,9.5 -113.05,14.25 -179.55,14.25 -170.99,0 -305.89,-46.07 -404.68,-138.22 -98.8,-92.15 -148.2,-227.52 -148.2,-406.11l0 -1279.6c0,-32.3 17.1,-48.45 51.3,-48.45l296.39 0c32.3,0 49.4,15.2 51.3,45.6l34.2 341.99 256.49 0c34.2,0 51.3,16.15 51.3,48.44l0 273.59c0,32.3 -17.1,48.45 -51.3,48.45l-253.64 0 0 515.83z"/>
  <path id="3" class="fil2" d="M25090.66 4349.8c0,188.09 -60.32,335.81 -180.96,443.16 -120.65,107.35 -285.47,161.02 -494.46,161.02 -208.99,0 -374.29,-53.67 -495.88,-161.02 -121.6,-107.35 -182.39,-255.07 -182.39,-443.16l0 -341.98c0,-190 60.79,-339.62 182.39,-448.86 121.59,-109.25 286.89,-163.87 495.88,-163.87 208.99,0 373.81,54.62 494.46,163.87 120.64,109.24 180.96,258.86 180.96,448.86l0 341.98zm-909.11 0c0,70.3 19.95,124.45 59.85,162.45 39.89,37.99 97.84,56.99 173.84,56.99 76,0 133.94,-19 173.84,-56.99 39.9,-38 59.85,-92.15 59.85,-162.45l0 -341.98c0,-72.2 -19.95,-127.77 -59.85,-166.72 -39.9,-38.95 -97.84,-58.43 -173.84,-58.43 -76,0 -133.95,19.48 -173.84,58.43 -39.9,38.95 -59.85,94.52 -59.85,166.72l0 341.98z"/>
  <path class="fil2" d="M20710.4 7034.44c-89.29,91.2 -197.59,163.39 -324.88,216.59 -127.3,53.2 -263.14,79.8 -407.54,79.8 -163.39,0 -306.84,-29.45 -430.33,-88.35 -123.5,-58.9 -219.92,-145.34 -289.26,-259.34 -69.35,-113.99 -104.03,-251.74 -104.03,-413.23l0 -595.63c0,-241.29 74.58,-427.48 223.72,-558.58 149.14,-131.09 348.16,-196.64 597.05,-196.64 121.6,0 242.72,16.15 363.36,48.45 120.65,32.3 227.52,77.9 320.62,136.79 17.1,11.4 25.65,24.7 25.65,39.9 0,5.7 -3.8,16.15 -11.4,31.35l-190.95 273.59c-9.5,15.2 -21.85,22.8 -37.05,22.8 -11.4,0 -21.84,-3.8 -31.34,-11.4 -123.5,-72.2 -270.74,-108.3 -441.74,-108.3 -110.19,0 -196.64,28.98 -259.34,86.93 -62.69,57.94 -94.04,141.06 -94.04,249.36l0 567.13c0,112.09 31.82,196.64 95.47,253.64 63.65,57 151.52,85.5 263.61,85.5 60.8,0 118.75,-7.13 173.85,-21.38 55.09,-14.25 102.59,-33.72 142.49,-58.42l0 -327.74 -304.94 0c-32.3,0 -48.45,-17.1 -48.45,-51.3l0 -279.29c0,-32.29 16.15,-48.44 48.45,-48.44l692.53 0c32.29,0 48.44,16.15 48.44,48.44l0 820.77c0,24.7 -6.65,43.7 -19.95,57z"/>
  <path id="1" class="fil2" d="M21078.04 7293.78c-34.2,0 -51.3,-17.1 -51.3,-51.3l0 -1293.85c0,-26.6 12.35,-46.55 37.05,-59.85 159.6,-77.89 334.39,-116.84 524.38,-116.84 70.3,0 162.45,9.5 276.44,28.5 30.4,5.7 45.6,23.75 45.6,54.15l0 262.19c0,17.09 -4.75,29.44 -14.25,37.04 -9.5,7.6 -22.8,10.45 -39.9,8.55 -51.3,-7.6 -110.19,-11.4 -176.69,-11.4 -85.5,0 -157.7,12.35 -216.59,37.05l0 1054.46c0,34.2 -16.15,51.3 -48.45,51.3l-336.29 0z"/>
  <path id="2" class="fil2" d="M23386.45 6726.65c0,188.09 -60.32,335.81 -180.96,443.16 -120.65,107.35 -285.47,161.02 -494.46,161.02 -208.99,0 -374.29,-53.67 -495.88,-161.02 -121.6,-107.35 -182.39,-255.07 -182.39,-443.16l0 -341.98c0,-190 60.79,-339.62 182.39,-448.86 121.59,-109.25 286.89,-163.87 495.88,-163.87 208.99,0 373.81,54.62 494.46,163.87 120.64,109.24 180.96,258.86 180.96,448.86l0 341.98zm-909.11 0c0,70.3 19.95,124.45 59.85,162.45 39.89,37.99 97.84,56.99 173.84,56.99 76,0 133.94,-19 173.84,-56.99 39.9,-38 59.85,-92.15 59.85,-162.45l0 -341.98c0,-72.2 -19.95,-127.77 -59.85,-166.72 -39.9,-38.95 -97.84,-58.43 -173.84,-58.43 -76,0 -133.95,19.48 -173.84,58.43 -39.9,38.95 -59.85,94.52 -59.85,166.72l0 341.98z"/>
  <path id="3" class="fil2" d="M24837.05 6832.1c0,165.29 -55.57,289.74 -166.72,373.33 -111.15,83.6 -270.26,125.4 -477.36,125.4 -102.59,0 -205.19,-15.68 -307.78,-47.02 -102.6,-31.35 -197.6,-77.43 -284.99,-138.22 -17.1,-11.4 -25.65,-24.7 -25.65,-39.9 0,-5.7 3.8,-16.15 11.4,-31.35l133.94 -227.99c11.4,-19 24.7,-28.5 39.9,-28.5 9.5,0 19,3.8 28.5,11.4 125.39,85.49 261.24,128.24 407.53,128.24 60.8,0 109.72,-9.97 146.77,-29.92 37.05,-19.95 55.58,-47.97 55.58,-84.07 0,-34.2 -17.58,-59.85 -52.73,-76.95 -35.15,-17.1 -85.97,-31.35 -152.47,-42.75 -376.18,-62.7 -564.27,-223.24 -564.27,-481.63 0,-153.89 55.09,-270.74 165.29,-350.54 110.19,-79.79 261.24,-119.69 453.13,-119.69 169.09,0 337.24,43.7 504.43,131.09 17.1,7.6 25.65,19.95 25.65,37.05 0,9.5 -2.85,19.95 -8.55,31.35l-131.09 222.29c-11.4,19 -24.7,28.5 -39.9,28.5 -9.5,0 -19,-2.85 -28.5,-8.55 -104.5,-55.1 -214.69,-82.65 -330.59,-82.65 -121.59,0 -182.39,35.15 -182.39,105.45 0,38 17.57,65.55 52.72,82.65 35.15,17.1 100.22,33.25 195.22,48.45 165.29,28.49 295.44,79.32 390.43,152.46 95,73.15 142.5,177.17 142.5,312.07z"/>
  <path id="4" class="fil2" d="M26250.6 6832.1c0,165.29 -55.57,289.74 -166.72,373.33 -111.15,83.6 -270.26,125.4 -477.36,125.4 -102.59,0 -205.19,-15.68 -307.78,-47.02 -102.6,-31.35 -197.6,-77.43 -284.99,-138.22 -17.1,-11.4 -25.65,-24.7 -25.65,-39.9 0,-5.7 3.8,-16.15 11.4,-31.35l133.94 -227.99c11.4,-19 24.7,-28.5 39.9,-28.5 9.5,0 19,3.8 28.5,11.4 125.39,85.49 261.24,128.24 407.53,128.24 60.8,0 109.72,-9.97 146.77,-29.92 37.05,-19.95 55.58,-47.97 55.58,-84.07 0,-34.2 -17.58,-59.85 -52.73,-76.95 -35.15,-17.1 -85.97,-31.35 -152.47,-42.75 -376.18,-62.7 -564.27,-223.24 -564.27,-481.63 0,-153.89 55.09,-270.74 165.29,-350.54 110.19,-79.79 261.24,-119.69 453.13,-119.69 169.09,0 337.24,43.7 504.43,131.09 17.1,7.6 25.65,19.95 25.65,37.05 0,9.5 -2.85,19.95 -8.55,31.35l-131.09 222.29c-11.4,19 -24.7,28.5 -39.9,28.5 -9.5,0 -19,-2.85 -28.5,-8.55 -104.5,-55.1 -214.69,-82.65 -330.59,-82.65 -121.59,0 -182.39,35.15 -182.39,105.45 0,38 17.57,65.55 52.72,82.65 35.15,17.1 100.22,33.25 195.22,48.45 165.29,28.49 295.44,79.32 390.43,152.46 95,73.15 142.5,177.17 142.5,312.07z"/>
  <path id="5" class="fil2" d="M27795.24 6726.65c0,188.09 -60.32,335.81 -180.96,443.16 -120.65,107.35 -285.47,161.02 -494.46,161.02 -208.99,0 -374.29,-53.67 -495.88,-161.02 -121.6,-107.35 -182.39,-255.07 -182.39,-443.16l0 -341.98c0,-190 60.79,-339.62 182.39,-448.86 121.59,-109.25 286.89,-163.87 495.88,-163.87 208.99,0 373.81,54.62 494.46,163.87 120.64,109.24 180.96,258.86 180.96,448.86l0 341.98zm-909.11 0c0,70.3 19.95,124.45 59.85,162.45 39.89,37.99 97.84,56.99 173.84,56.99 76,0 133.94,-19 173.84,-56.99 39.9,-38 59.85,-92.15 59.85,-162.45l0 -341.98c0,-72.2 -19.95,-127.77 -59.85,-166.72 -39.9,-38.95 -97.84,-58.43 -173.84,-58.43 -76,0 -133.95,19.48 -173.84,58.43 -39.9,38.95 -59.85,94.52 -59.85,166.72l0 341.98z"/>
 </g>
</svg>
